<?xml version="1.0" encoding="utf-8"?>
<!-- Generator: Adobe Illustrator 27.5.0, SVG Export Plug-In . SVG Version: 6.00 Build 0)  -->
<svg version="1.1" id="Layer_1" xmlns="http://www.w3.org/2000/svg" xmlns:xlink="http://www.w3.org/1999/xlink" x="0px" y="0px"
	 viewBox="0 0 612 512" style="enable-background:new 0 0 612 512;" xml:space="preserve">
<style type="text/css">
	.st0{opacity:0;fill:#FEFDFD;}
	.st1{opacity:0;}
	.st2{fill:#55090D;}
	.st3{fill:#CA3F2D;}
	.st4{fill:#EE752C;}
	.st5{fill:#EE752D;}
	.st6{fill:#C93F2C;}
	.st7{fill:#50B49F;}
	.st8{fill:#EE742C;}
	.st9{fill:#CA402D;}
	.st10{fill:#CA3F2C;}
	.st11{fill:#EC732C;}
	.st12{fill:#448880;}
	.st13{fill:#ED732C;}
	.st14{fill:#ED742C;}
	.st15{fill:#C83F2C;}
	.st16{fill:#F79E64;}
	.st17{fill:#F9F6F6;}
	.st18{fill:#EA712B;}
	.st19{fill:#F69D64;}
	.st20{fill:#EB722B;}
	.st21{fill:#EB722C;}
	.st22{fill:#EA722B;}
	.st23{fill:#EB732C;}
	.st24{fill:#C63D2B;}
	.st25{fill:#C43C2B;}
	.st26{fill:#C73E2B;}
	.st27{fill:#C13B2A;}
	.st28{fill:#C43C2A;}
	.st29{fill:#E66F2A;}
	.st30{fill:#F2EDEE;}
	.st31{fill:#E8702B;}
	.st32{fill:#E9712B;}
	.st33{fill:#BC3828;}
	.st34{fill:#D36126;}
	.st35{fill:#E26C2A;}
	.st36{fill:#C03A2A;}
	.st37{fill:#E26C29;}
	.st38{fill:#4B7F75;}
</style>
<path class="st0" d="M550,1c4.3,0,8.7,0,13,0c0,170.7,0,341.3,0,512c-4,0-8,0-12.5-0.5c-0.5-60.6-0.5-120.8-0.5-181
	c-3.6,12.6-8.4,24.5-14.9,35.8c-1.6,2.8-2.6,6.2-2.9,9.4c-0.7,7-0.2,14.2-1.2,21.2c-2.2,15.5-8.4,29.3-17.3,42.2
	c-9.1,13.2-20.7,23.1-34.5,30.8c-4.9,2.7-10.8,4.8-14.1,8.9c-8.3,10.4-18.9,17.7-30.6,22.5c-11.2,4.5-23.5,7.3-35.6,8.2
	c-18.4,1.3-37.1,1.7-54.6-6c-0.6-0.3-1.5-0.3-2.1-0.1c-6.4,2.1-12.7,4.3-19,6.6c-0.5,0.2-0.7,1.2-1,1.9c-22.7,0-45.4,0-68.2-0.3
	c-0.6-0.8-1.1-1.4-1.6-1.6c-9.2-4.1-18.5-8.1-27.6-12.2c-3-1.4-5.7-4.3-8.8-4.6c-7.3-0.7-14.6-0.3-21.9-0.2
	c-13.8,0.1-26.7-4.1-39.3-9.2c-11-4.5-20.9-11-29.8-18.8c-18-15.6-29.9-35.2-36.7-58c-2.8-9.2-4.9-18.6-8.2-27.6
	c-1.3-3.5-4.4-6.5-7.3-9.1c-2.8-2.5-6.4-4.2-9.5-6.1c0,48.9,0,98.3,0,147.8c-4,0-8,0-12,0c0-170.7,0-341.3,0-512
	c3.7,0,7.4,0,11.5,0.5C63,94.4,63,186.9,63,279c3.2-7.4,6.2-15.2,10-22.5c3.9-7.4,7.9-14.3,7.4-23.5c-0.4-6.6,2.7-13.5,4.2-20.2
	c0.3-1.3,0.9-2.6,0.8-3.9c-0.3-4.4-1.3-8.7-1.3-13.1c-0.1-8.9,3.7-16.3,12.3-18.6c8-2.2,12.5-7.9,17.9-13c1.5-1.5,3-3.1,4.8-4.2
	c9.1-5.7,18.3-11.4,27.5-16.9c2.3-1.4,5-2.3,4.4-5.9c-1.3-7.6,2.5-13.1,7.2-17.4c-3.5-3.8-7.2-7.1-10.2-10.9
	c-5.8-7.3-8.1-15.7-9.3-25C137,70.5,139,58.2,145,46.2c1.2-2.4,1.5-5.9,0.8-8.5c-3.7-12.6-3.7-28,11.8-34.7c0.7-0.3,1-1.4,1.4-2.1
	c5.7,0,11.4,0,17.2,0.3c1,0.8,1.7,1.4,2.6,1.7c13.9,4.4,23.8,13.1,29.4,26.7c16.2,1.6,26.8,10.7,33.5,25.6c37-4,74.3-5.8,112.2-2.4
	c0-2.2-0.3-4.6,0.1-6.8c0.8-5.1,1.5-10.2,3-15.1c4.1-12.7,13-21.3,24.7-27.3c0.9-0.5,1.5-1.7,2.3-2.6c15.7,0,31.4,0,47.2,0.3
	c3.4,2,6.9,3.3,9.9,5.4c13.7,9.5,24.7,21.4,28.8,38c5,20.4,3.7,40-9.9,57.1c6.8,10.9,6.8,21.7,1.2,33c0.3,0.2,0.7,0.6,1.1,0.8
	c12.3,5.9,22.3,14.9,32.1,24.1c1.5,1.4,3.5,3,5.3,3c15.2,0.5,22.8,8.7,23.5,23.7c0.4,9-6.8,17.6-1.2,26.8c0.1,0.2,0,0.7,0,1
	c1.3,5.9,0.8,12.1,6.3,16.8c6.8,5.8,11.4,13.6,14.7,22c2.2,5.5,4.5,10.9,6.9,16.6C550,179.9,550,90.5,550,1 M508,403.4
	c3.6-11.7,4.2-23.5,2.9-35.6c-0.2-1.9,0.4-4.2,1.4-5.7c10.4-16,17.8-33.2,19.5-52.3c2.4-26.3-4.8-49.4-24.2-68.1
	c-3.2-3-4.2-6.4-4.9-10.7c-1.4-8.3-3.4-16.7-6.9-24.2c-2.4-5.2-1.9-8.6,1.1-12.5c1.1-1.4,2.5-2.7,3.7-4.1c0.7-0.8,1.1-1.9,1.6-2.9
	c-1.1-0.5-2.2-1.5-3.4-1.5c-3.9,0-7.9,0.4-11.9,0.6c-10.6-14.2-24-25.2-39.8-33.4c-3.1-1.6-6.3-3.2-8.9-5.5c-3.1-2.7-6-5.8-8.2-9.3
	c-2.7-4.4-2.5-9.3,0.4-13.7c2.7-4,6.7-4.5,11.1-3.4c0.7,0.2,1.5-0.3,2.2-0.5c-1.4-5.3-7.8-8.8-14.3-8.3
	c-10.2,0.9-15.3,7.4-16.6,21.6c-3.6-1.7-5.5-4-4.9-8.5c0.8-6.1-2-10.6-6.6-12.1c-1.5-0.5-3.4,0.1-5.2,0.3c0.2,1.4,0.2,2.8,0.7,4
	c1.5,3.9,1,7.1-2.2,9.7c-4.2-1.5-8.3-3-13-4.7c1.6-5.4,3.1-10.4,4.5-15.5c0.4-1.4,0.4-2.8,0.6-4.2c-1.6,0-3.2-0.4-4.6-0.1
	c-6.4,1.5-11.7,4.9-15.5,10.3c-2,2.8-3.9,2.9-6.7,1.8c-6.4-2.6-9.6-8.8-8.4-17c7.6,0.5,15.2,1.3,22.8,1.4
	c14.6,0.4,29.4,1.6,43.8,0.2c17.3-1.6,29.5-13.4,32.5-28.1c5.2-26.5-19.5-53.5-46.4-50.7c-17.7,1.9-29.7,17-26.5,33.8
	c1.7,8.9,7.1,14.9,15.7,17.9c7.8,2.6,15.2,1.7,21.6-3.8c7.1-6.1,7.4-16.6,0.8-21.9c-3.8-3-8.1-4.2-12.5-1.6c-4.3,2.5-5,6.2-3.2,10.8
	c0.4,0.9-0.3,3.2-0.8,3.3c-1.2,0.2-3.4,0-3.8-0.8c-0.9-1.8-1.8-4.4-1.1-5.9c1.3-3.1,3.3-6.3,5.8-8.4c6.5-5.5,15.8-5.4,22.2-0.4
	c7.4,5.7,10,16,6.3,24.7c-3.9,9.2-11.9,14-20.2,13.1c-26.2-2.7-52.3-5.9-78.6-7.3c-31.3-1.7-62.6,0.5-93.7,4.5
	c-9.7,1.2-12.4,1.1-13.5-9.6c-1.1-10.5-11.1-18-21.6-17.7c-3.2,0.1-6.4,1.3-9.5,1.9c0,0.6,0,1.2,0,1.8c1.3,0.9,2.8,1.5,3.9,2.6
	c2.1,2.1,4.4,4.2,5.7,6.7c2.1,4.2-0.4,9.3-4.5,10.6c-3.7,1.2-8.2-1.8-8.8-6.5c-0.5-3.7,0-7.6,0.3-11.4c0.2-3.1,1-6.3,1.2-9.4
	c0.6-10.8-8-21.6-18.7-23.3c-1.2-0.2-2.6,0.5-4.5,1c7.7,7.3,8.9,13.6,4.9,22.6c-1.1,2.6-2.6,5-3.8,7.6c-1.4,2.8-2.9,5.7-3.9,8.6
	c-7.8,23.3,7.8,45.9,33.6,41c19.3-3.7,38.8-6.5,58.2-9c10.5-1.3,21.2-1.2,31.8-1.3c1.6,0,4.4,2.3,4.5,3.8c0.6,5.2,0.2,10.5,0.2,15.8
	c-9.2-0.8-12.4-6.4-8.9-13.3c0.5-1.1,0.6-2.4,0.9-3.5c-1.5-0.1-3.3-0.7-4.6-0.2c-4.6,1.9-5.8,6.1-6.3,10.5c-0.3,2.5,0,5.3-1.1,7.3
	c-1.1,2-3.5,3.7-5.7,4.5c-0.9,0.3-2.9-2.2-4.2-3.6c-2.9-2.9-5.4-6.3-8.6-8.8c-1.6-1.3-4.2-1.2-6.4-1.7c0.2,2,0.4,3.9,0.7,5.9
	c0.1,0.5,0.2,1,0.3,1.5c0.7,3.9,1.2,8-3,10.2c-4,2.1-6.9-0.7-9.7-3.2c-2.7-2.5-5.1-5.4-8.1-7.4c-3.4-2.4-7.4-3.4-11.4-0.4
	c1.2,2.3,2.2,4.2,3.1,6.1c-0.6,0.2-0.9,0.5-1.2,0.4c-18.2-1.2-24.9,5.2-24,23c0.1,1.1-0.4,2.7-1.2,3.3c-2.5,1.9-5.2,3.4-8,5.1
	c-2.4-10.9-4.5-13.2-11-11.8c2.4,8.3-0.4,14.9-7.1,20c-2.5,1.9-5.2,3.7-8,5c-16.8,7.6-30.8,18.4-40.5,34.2c-2.7-0.2-5.2-0.6-7.7-0.6
	c-1.1,0-2.3,0.9-3.4,1.4c0.5,1,0.9,2.1,1.6,2.9c1.7,2,3.5,3.9,5.3,5.9c-8.5,12.8-11.3,26.5-9.7,41.3c0.2,2.1-0.5,4.9-1.8,6.6
	c-15.8,20.5-22,43.5-17.4,69c1.3,7.4,4,14.5,6.1,21.9c-1.7,0.4-3.5,0.7-5.2,1.4c-1.1,0.4-2,1.5-2.9,2.3c0.9,0.8,1.8,1.6,2.7,2.4
	c3.8,3.4,8.8,6,11.2,10.2c3.9,6.8,6.3,14.5,9,22c4.3,11.9,7,24.5,12.6,35.6c18.9,37.5,60.4,58.2,102.1,52.2c2.5-0.4,6-0.5,7.8,0.9
	c33.3,25.8,69.1,26.9,106.3,10.3c6.5-2.9,11.2-3.5,18-0.2c17.4,8.6,36.1,7.9,54.8,4.3c18.5-3.6,34.3-11.6,45-27.8
	c0.7-1.1,2.2-1.9,3.6-2.4C481.8,447.9,498.9,430.1,508,403.4z"/>
<path class="st1" d="M711.2-65c0.5,89.5,0.5,178.9,0.5,268.7c-2.4-5.7-4.8-11.1-6.9-16.6c-3.3-8.4-7.9-16.2-14.7-22
	c-5.5-4.7-5-10.9-6.3-16.8c-0.1-0.3,0.1-0.7,0-1c-5.6-9.2,1.6-17.8,1.2-26.8c-0.7-15-8.4-23.2-23.5-23.7c-1.8-0.1-3.8-1.7-5.3-3
	c-9.8-9.2-19.8-18.2-32.1-24.1c-0.4-0.2-0.8-0.6-1.1-0.8c5.6-11.3,5.6-22.1-1.2-33c13.6-17.1,14.9-36.7,9.9-57.1
	c-4-16.6-15-28.5-28.8-38c-3-2.1-6.4-3.4-9.4-5.4C632.6-65,671.7-65,711.2-65z"/>
<path class="st1" d="M83-27.6c0,0.7-0.3,1.8-1,2.1C66.6-18.8,66.6-3.4,70.3,9.2c0.8,2.6,0.4,6.1-0.8,8.5c-6,12-8,24.3-6.3,37.7
	c1.2,9.2,3.5,17.7,9.3,25c3,3.8,6.7,7.2,10.2,10.9c-4.7,4.3-8.6,9.8-7.2,17.4c0.6,3.6-2.1,4.5-4.4,5.9c-9.2,5.6-18.4,11.2-27.5,16.9
	c-1.8,1.1-3.3,2.7-4.8,4.2c-5.4,5.1-9.9,10.8-17.9,13c-8.5,2.3-12.4,9.8-12.3,18.6c0,4.4,1,8.7,1.3,13.1c0.1,1.3-0.5,2.6-0.8,3.9
	c-1.5,6.7-4.6,13.6-4.2,20.2c0.5,9.2-3.5,16-7.4,23.5c-3.8,7.3-6.7,15.1-10,22.5c0-92.1,0-184.6,0-277.6
	C19.2-27.6,50.8-27.6,83-27.6z"/>
<path class="st1" d="M-210.5,634c-0.5-49.5-0.5-99-0.5-147.8c3.1,1.9,6.7,3.6,9.5,6.1c2.9,2.6,6.1,5.6,7.3,9.1
	c3.3,9,5.4,18.4,8.2,27.6c6.8,22.7,18.7,42.4,36.7,58c8.9,7.8,18.8,14.3,29.8,18.8c12.6,5.1,25.4,9.3,39.3,9.2
	c7.3-0.1,14.7-0.5,21.9,0.2c3,0.3,5.8,3.2,8.8,4.6c9.2,4.2,18.4,8.1,27.6,12.2c0.6,0.2,1,0.8,1.1,1.6C-84,634-147,634-210.5,634z"/>
<path class="st1" d="M449.2,663c-0.2-0.7,0-1.7,0.5-1.9c6.3-2.3,12.7-4.4,19-6.6c0.6-0.2,1.5-0.2,2.1,0.1c17.6,7.7,36.3,7.3,54.6,6
	c12-0.9,24.4-3.7,35.6-8.2c11.7-4.7,22.3-12.1,30.6-22.5c3.3-4.1,9.2-6.2,14.1-8.9c13.8-7.8,25.4-17.7,34.5-30.8
	c9-12.9,15.1-26.8,17.3-42.2c1-7,0.5-14.2,1.2-21.2c0.3-3.2,1.3-6.6,2.9-9.4c6.5-11.3,11.3-23.2,14.9-35.8c0,60.2,0,120.3,0,181
	C601.1,663,525.4,663,449.2,663z"/>
<path class="st1" d="M288.1-70.6c-0.3,0.9-0.8,2.1-1.8,2.6c-11.6,6-20.6,14.6-24.7,27.3c-1.6,4.9-2.2,10-3,15.1
	c-0.4,2.2-0.1,4.6-0.1,6.8c-37.9-3.4-75.2-1.6-112.2,2.4c-6.8-14.9-17.4-24-33.5-25.6c-5.6-13.6-15.5-22.3-29.4-26.7
	c-0.9-0.3-1.6-0.9-2.1-1.7C150.3-70.6,219-70.6,288.1-70.6z"/>
<path class="st2" d="M507.9,403.8c-8.9,26.3-26,44.1-51.8,53.6c-1.3,0.5-2.8,1.3-3.6,2.4c-10.8,16.2-26.5,24.2-45,27.8
	c-18.7,3.6-37.4,4.3-54.8-4.3c-6.8-3.4-11.5-2.7-18,0.2c-37.2,16.6-73,15.5-106.3-10.3c-1.8-1.4-5.2-1.3-7.8-0.9
	c-41.7,6-83.2-14.7-102.1-52.2c-5.6-11.2-8.3-23.8-12.6-35.6c-2.7-7.5-5.1-15.2-9-22c-2.4-4.2-7.4-6.9-11.2-10.2
	c-0.9-0.8-1.8-1.6-2.7-2.4c1-0.8,1.8-1.8,2.9-2.3c1.7-0.7,3.5-0.9,5.2-1.4c-2.1-7.4-4.8-14.5-6.1-21.9c-4.6-25.5,1.5-48.5,17.4-69
	c1.3-1.7,2-4.4,1.8-6.6c-1.6-14.8,1.2-28.5,9.7-41.3c-1.8-2-3.6-3.9-5.3-5.9c-0.7-0.8-1-1.9-1.6-2.9c1.1-0.5,2.2-1.4,3.4-1.4
	c2.5-0.1,4.9,0.4,7.7,0.6c9.7-15.8,23.8-26.6,40.5-34.2c2.9-1.3,5.6-3.1,8-5c6.6-5.1,9.5-11.8,7.1-20c6.4-1.4,8.5,0.9,11,11.8
	c2.8-1.7,5.5-3.2,8-5.1c0.8-0.6,1.3-2.2,1.2-3.3c-0.9-17.8,5.8-24.2,24-23c0.3,0,0.6-0.2,1.2-0.4c-1-1.9-2-3.8-3.1-6.1
	c4-3,8-2,11.4,0.4c3,2,5.4,4.9,8.1,7.4c2.7,2.5,5.7,5.3,9.7,3.2c4.2-2.2,3.7-6.3,3-10.2c-0.1-0.5-0.2-1-0.3-1.5
	c-0.2-2-0.5-3.9-0.7-5.9c2.2,0.5,4.8,0.5,6.4,1.7c3.2,2.6,5.7,5.9,8.6,8.8c1.3,1.4,3.3,3.9,4.2,3.6c2.2-0.8,4.6-2.5,5.7-4.5
	c1.1-2,0.8-4.8,1.1-7.3c0.5-4.5,1.6-8.7,6.3-10.5c1.3-0.5,3,0.1,4.6,0.2c-0.3,1.2-0.3,2.5-0.9,3.5c-3.5,6.9-0.4,12.5,8.9,13.3
	c0-5.3,0.3-10.6-0.2-15.8c-0.2-1.5-3-3.8-4.5-3.8c-10.6,0.1-21.3-0.1-31.8,1.3c-19.5,2.5-39,5.3-58.2,9c-25.8,4.9-41.4-17.7-33.6-41
	c1-3,2.5-5.8,3.9-8.6c1.2-2.6,2.7-5,3.8-7.6c4-9,2.8-15.3-4.9-22.6c1.9-0.4,3.3-1.2,4.5-1c10.6,1.7,19.2,12.5,18.7,23.3
	c-0.2,3.1-0.9,6.3-1.2,9.4c-0.3,3.8-0.7,7.6-0.3,11.4c0.6,4.7,5.2,7.7,8.8,6.5c4.1-1.3,6.5-6.4,4.5-10.6c-1.3-2.6-3.6-4.6-5.7-6.7
	c-1.1-1.1-2.6-1.8-3.9-2.6c0-0.6,0-1.2,0-1.8c3.2-0.7,6.3-1.8,9.5-1.9c10.5-0.3,20.5,7.2,21.6,17.7c1.1,10.7,3.8,10.9,13.5,9.6
	c31.1-4,62.4-6.1,93.7-4.5c26.2,1.4,52.4,4.6,78.6,7.3c8.3,0.8,16.2-3.9,20.2-13.1c3.7-8.7,1.1-19-6.3-24.7c-6.4-5-15.7-5-22.2,0.4
	c-2.5,2.1-4.5,5.3-5.8,8.4c-0.7,1.6,0.2,4.2,1.1,5.9c0.4,0.8,2.6,1,3.8,0.8c0.5-0.1,1.1-2.4,0.8-3.3c-1.8-4.5-1.1-8.3,3.2-10.8
	c4.5-2.6,8.7-1.5,12.5,1.6c6.6,5.3,6.3,15.8-0.8,21.9c-6.4,5.5-13.8,6.5-21.6,3.8c-8.5-2.9-14-8.9-15.7-17.9
	c-3.2-16.8,8.7-31.9,26.5-33.8c26.8-2.9,51.6,24.2,46.4,50.7c-2.9,14.7-15.1,26.5-32.5,28.1c-14.5,1.3-29.2,0.1-43.8-0.2
	c-7.6-0.2-15.2-0.9-22.8-1.4c-1.2,8.2,2,14.4,8.4,17c2.8,1.2,4.7,1.1,6.7-1.8c3.7-5.4,9.1-8.8,15.5-10.3c1.5-0.3,3.1,0,4.6,0.1
	c-0.2,1.4-0.2,2.9-0.6,4.2c-1.4,5.1-2.9,10.1-4.5,15.5c4.7,1.7,8.7,3.1,13,4.7c3.2-2.6,3.7-5.8,2.2-9.7c-0.5-1.2-0.5-2.7-0.7-4
	c1.7-0.1,3.6-0.8,5.2-0.3c4.7,1.5,7.4,6,6.6,12.1c-0.6,4.5,1.3,6.7,4.9,8.5c1.3-14.2,6.4-20.8,16.6-21.6c6.6-0.6,12.9,3,14.3,8.3
	c-0.8,0.2-1.6,0.6-2.2,0.5c-4.4-1.1-8.4-0.6-11.1,3.4c-2.9,4.4-3.1,9.3-0.4,13.7c2.2,3.5,5.1,6.6,8.2,9.3c2.6,2.3,5.8,3.9,8.9,5.5
	c15.8,8.2,29.2,19.2,39.8,33.4c4-0.2,8-0.6,11.9-0.6c1.1,0,2.2,1,3.4,1.5c-0.5,1-1,2-1.6,2.9c-1.1,1.4-2.5,2.6-3.7,4.1
	c-3.1,3.9-3.5,7.4-1.1,12.5c3.5,7.5,5.5,16,6.9,24.2c0.7,4.4,1.7,7.7,4.9,10.7c19.4,18.6,26.6,41.8,24.2,68.1
	c-1.7,19.1-9.1,36.3-19.5,52.3c-1,1.6-1.6,3.9-1.4,5.7C512.2,379.9,511.5,391.8,507.9,403.8 M330.1,119.7c-2.2,0-4.5,0-6.7,0
	c-0.3,0.5-0.6,1-0.9,1.5c2.7,3.1,5.5,6.3,8.2,9.4c0.5-0.3,1-0.7,1.4-1c-0.4-2.8-0.7-5.7-0.3-8.7c3.8,1.5,7.6,3,11.8,4.8
	c1.1-1.5,3.2-4.1-1-5.2C338.9,119.5,334.9,119.9,330.1,119.7 M105.1,348.2c0.1,0,0.1,0,0.2,0c-0.1-0.1-0.2-0.1-0.5-0.8
	c-3.4-6.1-6.9-12.2-10.4-19.1c-1-4.7-2.3-9.4-2.8-14.2c-1.5-13,6.4-25.9,17.6-28.6c7.3-1.8,13.9-0.2,18.9,5.8
	c4.4,5.4,5.2,11.4,2.4,17.8c-2.8,6.3-7.9,9.9-14.9,9.9c-2.1,0-4.3-1.4-6.5-2.1c1.9-0.6,3.9-1.5,5.8-1.6c7.1-0.3,12.8-5.5,13.1-12.5
	c0.4-7.3-4.8-13.3-12.1-14c-9.3-0.9-18.1,6.4-20,16.5c-1.7,9-0.1,17.5,4.1,26.3c7.8,17.2,20.6,28.9,39.5,35.7
	c-0.8-2.7-0.8-4.4-1.7-5.6c-4.2-6.1-8.6-12.1-12.9-18.1c-0.6-0.9-1.2-1.8-1.7-2.8c1.1-0.6,2.1-1.8,3.2-1.8c3.4,0.1,6.8,0.6,9.3,0.9
	c0.8-7.7,1.5-15.4,2.6-23.7c2-4.4,3.1-9.4,6.1-13c6-7.4,12.6-14.5,19.6-21c7.6-7,13.6-14.6,14.7-25.2c0.2-2.4,0.4-5.6-0.9-7.1
	c-6.3-7.5-14.6-11.5-23.6-12.9c1,6.6,2.7,13,2.6,19.2c-0.2,8.5-7,14.1-14.7,13.9c-6.6-0.2-12.1-6.3-12.8-14.3c-0.2-2-0.1-4,0.3-5.9
	c1.5-6.1,3.5-12.1,4.9-18.3c2.3-10.4-0.5-19.2-9.1-25.6c-2.8-2.1-6.4-3.1-9.6-4.6c1,4.1,2.9,6.9,4.1,10c5.9,15,1.3,27.7-8.5,39.7
	c-6.3,7.7-12.4,15.8-16.7,24.7c-7.9,16.3-10,33.6-5,52.3c1,3.6,2.3,7.3,3.1,11C94.3,345.5,98.7,348,105.1,348.2 M118.9,361.5
	c-0.2,0-0.4,0.1-0.6,0.1c0.2,0.2,0.3,0.4,0.5,1.3c2.7,4.5,4.9,9.4,8.3,13.3c1.5,1.7,5.5,2.4,8,1.9c2.1-0.4,3.6-3.4,5.4-5.2
	C132.6,368.8,125.9,365.3,118.9,361.5 M148.8,184.8c0,0,0,0-0.8-0.1c-9.3,2.7-16.7,16.7-12.7,26c3.1,7.2,3.8,14.2,3.4,21.8
	c-0.5,9.2,6.4,17.5,15,17.8c-1.9-4.8-3.7-9.1-5.4-13.6c-0.4-1.2-0.5-2.4-0.8-3.7c1.4-0.2,2.9-1,4.1-0.6c7.8,2.8,15.4,5.8,23.4,9.2
	c0.2,0,0.5,0,0.7,0c-0.1-0.4-0.2-0.7-0.4-1.8c-3-7-8.3-11.8-15-15.3c-1.4-0.7-2.4-2.3-3.5-3.4c1.6-0.6,3.2-1.7,4.8-1.7
	c3.7-0.1,7.4,0.3,11.1,0.5c0.4-4.2,0.8-8,1.6-12.4c4.8-16.5,14.8-28.5,31.3-35.6c4.4-1.6,8.9-2.9,13.1-4.9c4.5-2.1,7.9-5.4,7.3-11.4
	c-8.5-0.5-15-3.9-18.4-11.8c-3.5-7.9-1-14.8,4-21.4c-10.2,0.9-15.9,8-14.3,17.3c0.5,2.8,1.6,5.5,1.8,8.3c0.3,3.9,0.6,8-0.2,11.8
	c-1,4.4-4.4,7.1-9.1,7.2c-5,0.1-7.5-3.4-8.6-7.7c-0.8-2.9-0.7-5.9-1.1-8.9c-0.2-1.9-0.5-3.7-0.6-4.6c-2.5,4.4-4.4,9.6-7.9,13.4
	c-3.5,3.8-8.6,6.1-13.1,8.9c-6.6,4.1-13.6,7.7-19.9,12.3c-6.8,5-12.3,11.4-16.6,18.8c3.2,2,5.9,3.8,8.7,5.6
	c5.6-21.1,11.5-26.4,26.4-23c9.4,5.9,10.9,15.8,3.5,24c-2.1,2.3-4.8,4.1-7.9,6.1c-8.6,2.3-12.5-0.1-12.5-8.5c1.9-2,3.3-2.6,3.7,1
	c0.6,4.5,2.6,6,6.5,3.9c3.3-1.7,6.3-4.3,8.7-7.1c2.9-3.4,3.1-7.8,0.9-11.7c-2.1-3.7-5.6-5.6-10.5-5.2
	C149.2,184.3,148.9,184.5,148.8,184.8 M453.8,179.3c-6.2-5.1-12.3-5.8-17.2-2c-3.9,3-5.4,9.4-3.8,13.1c7-3.4,14-6.8,21.2-9.4
	c-0.7,1.5-1.4,3.1-2.3,4.6c-2.3,4.1-4.7,8.1-7.3,12.5c7.8,2.6,8.5-3.7,10.9-7.5c4.4,6.3,0.3,10.8-11.1,12.8c0,3.3,0,6.7,0,10
	c3.9-0.8,7.4-1.7,11-2.2c1.3-0.2,2.7,0.8,4,1.3c-0.6,1.2-1,2.7-1.9,3.7c-2.8,3.3-5.3,6.6-5.1,11.8c6.7-3.9,9.4-9.7,10.2-16.6
	C463.5,199.9,462.6,188.9,453.8,179.3 M293.5,127.3c-5.5,4.9-14.6,3.3-19.4,10.1c2.8,0.8,6.6,1,7.2,2.4c0.8,2-0.7,5.1-1.4,8.2
	c5.2-5.4,8.8-6.7,13.6-4.5c7.5,3.5,8.3,10.2,7.1,17.6c4.6-4,8.7-7.9,13.1-11.3c6.1-4.7,6.3-6.2,0.8-11.8c-4-4-8.1-7.9-12.4-12.6
	c-0.7-1.4-1.5-2.8-2.4-4.7C297.7,122.9,295.9,124.9,293.5,127.3 M514.8,292.2c-1.5-4.3-2.5-9.1-4.8-12.9c-4.3-7.1-12-9-18.5-5.3
	c-6.3,3.5-6.8,6.4-2.6,16.2c4.4,0.2,9.4-1,12.9,2.2c-3.7,4.5-7.6,8.2-10.1,12.6c-2.7,4.6-3.5,10-0.8,16c0.8,1.8,1.4,3.7,2.4,5.4
	c3.8,6.8,8,13.4,11.6,20.3c1.9,3.7,3,7.8,4.7,12.4c14.1-21.7,21-44.5,18.3-69.6c-0.6-5.6-2.9-11.1-4.6-17.4
	c-1.3-3.2-2.1-6.8-4.2-9.5c-5.8-7.7-11.7-15.3-18.1-22.4c-8.2-9.1-14.5-19-12.7-31.8c0.9-6.4,3.6-12.4,5.5-18.5
	c-8.8,0-17.6,6.8-20.6,16.4c-2.5,7.9,0,14.9,2.6,22.2c1.7,4.7,2.6,10.1,1.9,14.9c-0.5,3.4-4.3,6.4-6.6,9.5c4,6.8,8.4,14.2,13,21.8
	c0.5-0.4,1.1-0.9,1.7-1.4c8.7-7.6,18.9-7.1,26.2,1.8c2.3,2.8,3.5,6.4,5.2,10.4c1,7.2,2.5,14.4,2.8,21.6c0.2,5.7-4.5,10.9-9.2,11.7
	c-5.6,0.9-8.1-0.5-11-6.9c0.7-2.3-1.1-6.7,4.3-4.3c0.1,2.6-1.6,6.4,2.4,6.9c2.4,0.3,5.5-1.2,7.6-2.8c1.4-1.1,2-3.8,1.9-5.8
	C515.9,301.7,515.2,297.3,514.8,292.2 M332.5,318.7c2.8,0.1,5.6,0.4,8.4,0.3c9.7-0.6,18.4-7.2,20.4-15.7c2.5-7.3-0.1-13.2-5.8-17.6
	c-11.8-8.9-25-11-39.1-6.7c-9.1,2.7-15.4,8.7-19.3,17.5c4.6,1.3,8.9,2.4,13.1,3.9c2,0.7,3.6,2.5,5.4,3.7c-2,0.6-4,1.6-6,1.8
	c-11.4,1.1-17,6.5-16.3,16.7c0.1,0.7,0.3,1.3,0.4,2c2.2,14.5,8.3,25.6,24,29.4c8.6,2.1,16.2,6.8,21.9,14.1
	c4.5,5.8,13.7,4.9,17.2-1.4c6.9-12.4,4-28.4-6.7-38.2c-0.9-0.8-1.3-2.1-2-3.1c1-0.4,1.9-1.3,2.9-1.3c17.9,0.6,30.3,13.7,29.5,31.8
	c0,0.2,0.1,0.4,0.1,0.6c0.2-0.2,0.3-0.4,1.1-0.8c3.8-5,8.5-9.5,11.3-15.1c12.5-25.3,9-49.6-6.1-73.5c-7.2-8-14.2-16.2-21.8-23.9
	c-5-5.1-11.2-8.9-16.3-14c-14.2-14.2-14.7-35.9-1.6-51.1c0.8-0.9,1.5-1.9,2.6-3.4c-12.5,0.4-21.4,5.3-26.6,15.8
	c-4.9,10.1-3.6,20.1,3,29.2c2.3,3.1,5.1,5.8,7,9.1c2.4,4.3,0.7,9.6-3,11.3c-3.6,1.7-7.8-0.4-9.9-5.2c-0.9-2.1-1.5-4.4-2.3-6.6
	c-4.8-12.5-18.9-19.2-31-14.4c1.6,0.7,2.9,1.2,4.2,1.8c1.8,0.9,3.6,1.7,5.2,3c8.8,7.1,8,18.2-2.1,23.2c-4.9,2.5-10.7,3.4-16.2,4.7
	c-15.9,3.8-30,17.3-32,31.2c10.3,5.1,17.1,13.6,20.8,23c8.4-1.5,16-2.8,23.5-4.4c1.4-0.3,2.9-1.9,3.6-3.2
	c3.3-6.4,7.7-11.8,14.1-15.1c15.8-8.3,31.5-6.9,46.6,1.9c6.3,3.7,10.5,9.1,11.4,17.5c1.1,8.9-6,19.4-16.8,23.2
	c-8.4,2.9-16.6,2.1-25.2-0.7c-1.6-1.5-3.3-2.8-4.7-4.4c-3.4-4.1-3.4-11.2-0.1-14.2c0.7-0.6,2-0.7,3-1c0.2,0.9,0.8,1.9,0.5,2.6
	C319.7,312.8,322.1,316.7,332.5,318.7 M426.1,307.3c0-1,0-2,0.1-3c1.2,0.3,2.5,0.4,3.5,1c7.4,4.2,15.2-0.1,15.5-8.6
	c0.3-7.4-6-14-14-14.7c-13.3-1.2-22.7,9.1-21.9,24.7c1,4.4,2,8.7,3.1,13.1c0.7,2.6,2.3,3.3,5.2,3.5c4.2,0.2,8.5,1.1,12.5,2.4
	c3.2,1,4.2,3,0.7,5.6c-2.1,1.6-3.5,4.1-5.4,6.5c2.8,2,4.9,3.6,6.7,4.9c3.8-2.3,7.2-4.4,10.6-6.4c2.5-1.4,4-0.8,4.4,2.2
	c0.7,4.3,1.3,8.6,2.6,12.7c2,6.2,3.7,6.8,9.4,3.9c2.8-1.4,5.5-3.2,8-5c5.9-4.4,9.5-9.6,6.1-17.3c-0.8-1.8-1.1-3.8-1.6-5.8
	c-4.9-19.8,0.9-28.7,13.4-35.8c-2-5.3-4.1-10.7-6.3-16.8c-5-12.1-13.1-21.9-22.3-30.8c-11-10.7-18.2-23-16.2-39
	c0.6-5.2,2.3-10.2,3.5-15.3c-15.3,7.5-22.3,25.8-15.8,41.3c1.4,3.2,3.5,6.2,4.3,9.5c1.1,4.9,2.2,10.1,1.7,15
	c-0.6,5.8-6.6,10-11.6,9.7c-5.3-0.3-10.6-5.3-11-11.2c-0.3-4.4,0.4-8.9,0.9-13.3c0.5-4.3,1.8-8.5,1.9-12.8c0.1-8.2-6.7-15.5-14-15.8
	c0.4,1,0.7,1.9,1.1,2.8c5.5,13.7,1.4,21.6-13,25.1c-2.9,0.7-5.9,1.4-8.5,2.7c-4.5,2.3-4.7,4.2-1.3,7.8
	c13.8,15.1,23.6,32.2,25.8,53.8c-0.8,10.5-1.7,21-2.5,31.6c1.3-2.9,3.4-5.9,6.2-8.1c2.1-1.7,2.2-2.8,1.5-5.3
	c-1.7-6.2-2.7-12.5-3.7-19.5c1.6-5,2.4-10.5,5-14.9c5.4-8.8,16.9-11.9,26.4-8.2c9,3.6,13.2,11.3,11.3,22.1
	C444,311.3,436.1,313.7,426.1,307.3 M206.5,340.7c-3.2,6.8-8.8,10-15.4,7.9c-3.3-1.1-6-3.7-9.3-6.3c-5.7-9.8-5.6-19.7,0.7-29.1
	c6.5-9.8,18.3-13.8,29.3-10.7c12,3.4,18.8,12.5,19.7,26.9c12.3,5.4,19.1,14.5,19.5,28.1c0,1.6,0.1,3.6,1,4.8
	c1.8,2.4,4.4,6.2,6.2,5.9c2.8-0.4,5.7-3.4,7.6-5.9c1.1-1.4,1.1-4.4,0.3-6.1c-2.6-6.2-5.7-12.3-8.7-18.3c-5.2-10.4-4.2-21.1,3.4-29.1
	c3-3.2,3.4-5.7,0.6-9.6c-3.2-7.8-8.8-13.4-16.1-17c-3.7-1.8-5.4-4.1-6.3-8c-1.3-5.7-4-10.8-8.8-15.8c-0.2,2-0.2,2.9-0.4,3.7
	c-1.6,9.8-7.2,15.5-15.7,15.9c-9.2,0.4-16.4-5-18.7-14.6c-0.8-3.1-0.6-6.3-1.5-9.3c-1.9-6.4-3.4-13.3-6.7-19
	c-3.9-6.7-10.3-10.9-19.1-10.6c0.7,1.4,2.1,2,3.1,3c15,14.6,15.5,36.8,1,51.9c-5.4,5.6-11.7,10.4-17.2,16
	c-8.2,8.5-13.5,18.5-14.4,31.3c0.3,5.6-0.1,11.3,1,16.7c4.1,18.5,15.7,31.9,30.6,42.8c7.9,5.8,16.5,10.3,26.4,12.5
	c3.1-11.3,8.4-21,16.4-29.1c3.8-3.9,7.8-7.8,10.9-12.2c5.6-8,3.8-17.1-4.6-23.8c-1.5-1.1-3-2.2-4.5-3.3c0.1-0.6,0.2-1.1,0.3-1.7
	c3.2-0.3,6.5-0.6,9.7-0.9c0.9-14.3-13.9-25.3-28.5-21.5c-15.1,3.9-22.2,23.3-12.6,34.6c2.9,3.5,6.8,4.7,11.2,3.6c4-1,6-3.8,6-8.1
	c0-0.8,1-1.7,1.6-2.6c0.7,0.8,1.8,1.4,2.1,2.3C207.1,337.4,206.8,338.8,206.5,340.7 M445.4,52.8C440.1,34.6,421,22,403.3,25
	c-15.4,2.6-25,16.4-21.2,30.5c3.7,13.7,21.4,19.5,31.1,10.1c5.4-5.3,5.1-13.7-1-16.5c-2-0.9-5.1-0.5-7.3,0.4c-0.8,0.3-1,3.7-0.6,5.6
	c1,4.6-1.1,8.4-5.4,8.8c-4.6,0.5-9.6-4.6-8.2-9.6c1.2-4.6,3.7-9.4,7.1-12.6c7.1-6.7,18-6.9,26-1.8c8.4,5.4,12.7,16.9,10.1,26.8
	c-3.5,13-14.1,19.9-27.3,18.5c-23.2-2.5-46.3-5.5-69.6-6.7c-34-1.8-67.9-0.1-101.7,4.5c-10.6,1.4-13.6-0.9-15.3-11.6
	c-1.3-8.6-10-17.5-19.8-15.3c1,1.1,1.9,2,2.7,3c3.9,5,4.4,10.6,1.2,15.3c-2.7,4-6.4,5.8-11.2,4.7c-5.1-1.2-8.8-6-8.8-12.5
	c0-5.4,1.2-10.9,1.7-16.3c0.6-7.7-1.6-14.1-8.6-18.7c-0.2,0-0.4,0.1-0.6,0.1c0.2,0.2,0.3,0.4,0.4,1.5c1.1,6.9-0.1,13.4-3.5,19.6
	c-2.1,3.8-4.1,7.6-5.6,11.6c-3.3,8.7-3.8,17.4,1.4,26.4c6.1,10,15.3,12.7,26.2,11.1c13.8-2,27.6-4.5,41.4-6.4
	c13.8-1.9,27.6-4.4,41.5-4.9c16.5-0.7,20.3,4.7,17.2,21.1c-0.5,2.7-0.9,5.5-1.4,8.2c0.4,0.1,0.9,0.2,1.3,0.3
	c1.7-3.7,3.4-7.4,5.3-11.8c2.1,6.5,3.7,11.6,5.5,16.9c7.7-10.9,8.4-21.5,3-32.8c2.2-0.3,3.3-0.7,4.4-0.6c14.1,0.8,28.2,1.8,42.3,2.6
	c18.1,1,36.2,2.2,54.3,2.4c6.4,0.1,13.2-1.9,19.2-4.4C444.8,86,452.1,67.6,445.4,52.8 M131.9,343.6c-0.1,0-0.3,0-0.4-0.1
	c0.1,0.2,0.2,0.5,0.4,1.4c0.9,1.2,1.9,2.3,2.8,3.5c4.9,7,9.5,14.2,9.2,23.2c-0.3,9.2-9.5,14.4-17.1,9.4c-3.6-2.4-6.2-6.3-8.7-9.9
	c-2.2-3.1-3.3-6.9-5.2-10.2c-4.7-7.9-12.1-10.6-21.1-10.8c3.1,3.7,6.9,6.6,8.7,10.5c4.1,9,7.9,18.3,10.4,27.9
	c5.7,21.9,14.6,41.8,32.1,56.9c5.6,4.9,12,8.8,18,13.2c0.4-0.5,0.8-0.9,1.1-1.4c-1.2-1.7-2.5-3.5-3.7-5.2c-7-11-13.3-22.3-15.7-35.3
	c-1.4-7.6,1.8-13.9,8.6-17.3c14.9-7.4,35.3,3.6,37.4,20.2c1.4,11.1-9.7,21.9-19.8,19.3c-1.3-0.3-2.4-1.9-3.5-2.8
	c1.2-0.3,2.5-1.1,3.7-0.9c10,1.1,17.3-7,15.1-16.9c-2.5-11.4-16-19.5-27.5-16.5c-8.4,2.2-11.8,7-9.9,15.5c4,17.3,12.8,32,24.5,45.1
	c1,1.1,2.8,1.8,4.3,2.3c13.4,4.9,27.3,5.4,41.4,4.5c1.5-0.1,3-0.8,4.2-1.1c-4.4-6.1-9.1-11.6-12.8-17.7
	c-8.1-13.4-12.5-27.9-10.7-43.7c0.3-3.1-1.1-3.7-3.7-4.6c-26.2-9.2-45.5-25.9-55.2-52.5C137.7,345.8,135.6,344.2,131.9,343.6
	 M416.9,244c1.6-2.1,3.5-4.1,4.7-6.4c1.1-2.1,2.7-5,2-6.7c-5.2-13.7-1.6-25.5,6.7-35.9c-0.8-2.1-1.7-3.9-2.1-5.8
	c-4.1-17.5-13.9-30.7-29.1-40.1c-4.2-2.6-8.4-5.3-12.5-8.2c-6.7-4.7-8.4-11.7-7.8-19.2c0.4-4.4,1.8-8.8,3-13.5
	c-0.3-0.1-0.7-0.2-1.7-0.2c-12.5,5.7-18,17.7-14.1,30.9c0.7,2.2,1.4,4.5,1.8,6.7c0.6,4.2-0.3,8.1-4.1,10.5
	c-3.9,2.5-8.2,2.1-11.7-0.7c-2.6-2.2-4.6-5.2-6.2-8.2c-1.5-2.9-1.7-6.4-2.9-9.5c-1.6-3.9-3.6-7.7-5.5-11.5c-0.4,0.2-0.9,0.4-1.3,0.6
	c0.3,8.3-3.6,14.3-10.1,19c-4.5,3.2-9,6.3-13.3,9.7c-7.2,5.6-11.9,12.8-14.1,21.8c-0.7,2.9-0.4,4.9,1.8,7.1
	c7.5,8,11.8,17.6,12.6,28.7c0.1,0.9,0.2,2.2,0.8,2.7c5.4,4.9,8.1,11.2,10.4,17.9c0.5,1.4,3,2.1,4.6,3.1c0.4-2,1.5-4.3,0.9-5.8
	c-1.1-2.5-3.3-4.5-5.1-6.7c-8.3-10-10.5-21.1-5.6-33.1c4.8-11.9,14.1-18.3,26.7-19.7c3.7-0.4,7.5,0.6,11.3,1
	c0.2,0.5,0.3,1.1,0.5,1.6c-8.7,7.5-15.6,16-15.5,29.3c6.5-13,16.2-19.4,29.7-18c12.6,1.3,19.7,9.2,21.7,21.6
	c9.4-2.7,24.8,6.5,24.6,21c-0.1,5.2-1.5,10.5-2.7,16.2c0,0.3,0.1,0.5,0.1,0.8C415.7,244.6,416,244.5,416.9,244 M358.9,330.6
	c-0.1,0-0.3,0-0.4-0.1c0.1,0.2,0.2,0.5,0.3,1.5c0.4,0.9,0.8,1.8,1.3,2.7c8.8,17.2,5,33.9-10.5,45.6c-3.5,2.6-7,5.1-10.5,7.7
	c-9.6,7-16,16.1-16.2,28.4c-0.1,7.1,0,14.3,1.2,21.3c3.3,18.5,11.4,34.1,29.6,42.3c6.5,2.9,13.3,5.3,21.6,5.1
	c-7.1-10.3-11.9-20.6-13.9-32.1c-3.3-18.2,5-37.6,20.5-47c13.1-8,30.5-6.3,40.1,3.8c7.6,8,9.5,19.3,4.9,28.6
	c-4.1,8.3-12.2,12.6-21.8,11.8c-10.6-0.9-19-12.4-16-22.2c0.3-1,1.5-1.8,2.3-2.7c0.5,1,1.1,2.1,1.5,3.1c0.2,0.6-0.1,1.3-0.1,2
	c-0.2,7.8,3.1,12.9,9.7,15.1c6.9,2.3,14.6-0.1,18.8-5.7c4.9-6.7,5.4-13.9,1.9-21.2c-3.8-8.3-10.8-12.6-19.7-13.4
	c-15.9-1.4-30,8-35.6,23.4c-7.1,19.9-1.1,37.2,10.3,53.5c2.1,3,4.4,4.6,8.3,4.1c6.4-0.9,12.9-1,19.3-2.2
	c14.2-2.5,27.2-7.7,37.3-18.6c9.1-9.9,13.9-21.6,15.4-35c1.9-17.3-2.1-32.7-14.2-45.5c-4.8-5.1-10-9.8-14.8-14.9
	c-6.9-7.4-11.3-16-9.3-26.3c1-5.3,3.8-10.3,5.8-15.6c-5.4-2.2-11.1-1.5-16.2,2.6c-5.6,4.5-7.5,10.4-6.3,17.4
	c1.5,8.6,3.9,17.2,4.4,25.9c0.6,9-6.8,15.9-15.6,16.2c-12.7,0.5-21.5-10.4-19-23.3c0.9-4.7,2.3-9.4,3.3-14.1c1-5,0.1-10.1-3.8-13.3
	C368.7,336,363.7,333.7,358.9,330.6 M293.2,407.2c2.3,2.1,4.8,4.1,7,6.4c8.1,8.6,10.1,20.9,5.1,31.5c-4.7,10-15.2,15.8-27.1,14.9
	c-10.1-0.7-20.4-10.2-21.9-20.4c-0.2-1.3,0.9-2.8,1.4-4.3c0.8,1,1.8,2,2.4,3.1c1.6,3.2,2.6,7,4.8,9.7c7.4,9.2,21,10.6,30,3.5
	c9.8-7.8,12.1-22.3,5.2-32.3c-6-8.6-14.6-13.1-24.4-15.3c-16-3.6-29.8,2.6-36.2,16c-6.7,14.1-4.2,27.6,3.7,40.4
	c6.9,11.2,16.8,19.3,28.2,25.6c2.9,1.6,5.9,3.6,9,3.8c16.7,1.4,32.8-1.4,48.3-7.8c3.9-1.6,7.6-3.6,10.8-5.1
	c-4.3-6.2-8.6-11.5-11.9-17.4c-6.5-11.6-8.9-24.4-9.1-37.5c-0.2-14.5,4.5-27.1,16.7-36.1c5.9-4.4,6.5-7.2,2.6-13.7
	c-4.1-7-10.9-10.5-18.1-13.5c-8.1-3.4-16.7-6.2-24-10.9c-17.3-11.1-15.9-32.6,2.2-42.4c1.8-1,3.7-1.9,5.6-2.8
	c-0.1-0.6-0.1-1.2-0.2-1.8c-6.2,0-12.5-0.6-18.6,0.1c-19.4,2.1-35,20.1-20.9,39.9c3.2,4.5,5.2,10,6.7,15.4c2,7.2-3,14.4-10.1,16
	c-5.4,1.2-10.6-2.9-12.6-10.2c-0.3-1.3-0.5-2.6-0.7-3.9c-0.4-2.6-0.6-5.3-1.1-7.9c-1.8-8.8-10.2-16.6-17.7-16.6
	c7.5,13.3,6.4,21.7-4.6,33c-2.3,2.4-4.8,4.7-7,7.1c-10.4,11.1-15.9,24.5-15.2,39.5c1.1,24.7,12.9,44,32.4,58.8
	c8.9,6.8,18.7,11.8,29.7,14.5c-3-2.8-6.4-5.2-9.5-7.9c-14.1-12.3-23.1-26.9-22-46.5c0.9-16.1,12.7-29.6,28.2-32.5
	C272,397.6,282.5,401.1,293.2,407.2 M260.7,151.5c-3.8,5.7-2.7,12.2-2.7,18.4c0.1,6.9-2.5,12.3-8.9,15.5c-4.7,2.3-9.1,1.4-12.9-2
	c-3.9-3.4-4.2-7.8-2.5-12.3c1-2.6,2.6-5,3.6-7.7c3.7-10.2-3.6-20.3-11.9-18.4c8.5,13.3,5.8,21.4-9.2,27.3c-2.6,1-5.3,1.9-8,2.8
	c-17.9,6.2-31.6,25.1-31,43c0.1,1.7,1.4,4,2.8,5c9.7,6.2,15.5,14.8,17.2,26.3c0.8,5.3,1.4,10.6,2.9,15.7c1.8,6.2,6.9,9.2,11,8.7
	c-2.3-6.1-6-12.4-6.9-19c-2-14.8,1.4-29,9.6-41.5c3.1-4.8,8-9,12.9-12c8.3-5,17-4,24.6,2.2c6.7,5.4,8.3,15.2,3.9,22.6
	c-4.4,7.5-13.5,11.1-21,8.2c-5.9-2.3-9-8.2-6.7-13.1c0.5-1,1.8-1.5,2.8-2.2c0.3,1.1,0.9,2.2,0.8,3.3c-0.8,5.4,1.7,8.6,7.2,9
	c7.2,0.5,13.3-4.1,15-11.2c1.6-6.9-2.3-13.8-9.6-16.7c-8.8-3.5-20.4,1-26.5,10.9c-7.8,12.6-11.4,26.4-9.2,41
	c0.8,5.4,4.7,10.4,7.6,15.3c2.1,3.5,4.7,2.2,6.7-0.5c3.5-4.7,4.3-9.9,2.8-15.6c-0.3-1.1,0.2-2.4,0.4-3.6c1.1,0.4,2.6,0.4,3.4,1.2
	c2.9,3,5.8,6,8.2,9.4c2.3,3.3,3.8,7.1,5.9,11.1c8.3-18,21.9-27.9,40.9-30.6c2.9-0.4,5.8-1.5,8.4-2.9c7.7-4.1,8.2-12.5,0.8-17.2
	c-3.4-2.2-7.6-3.1-11.5-4.5c-1.3-0.5-2.5-1-4.8-1.8c10.5-8.7,20.8-8,31.8-3.3c-1.1-9.5-4.2-17.5-10.3-23.9c-3.9-4.1-8.5-7.5-13-10.8
	c-10.4-7.6-13.4-15.1-10.5-27.7c0.5-2.4,1.2-4.7,2-7.5C269.9,142.5,264.9,145.5,260.7,151.5 M505.9,396.1c2-10,2.4-20.1,0.6-30.2
	c-2.3-13.1-8-24.6-15.4-35.4c-6.4-9.4-7.9-19.3-2-29.5c1.3-2.3,2.9-4.3,4.5-6.6c-11-1-19.8,8.9-19.6,17.8c0.1,5.9,1.6,11.8,2.4,17.7
	c0.8,5.9,2.4,11.8,2.4,17.7c0,9.5-6.8,17-15,17.8c-7.9,0.8-16.3-6-18.7-15c-0.8-3.1-1.3-6.3-2-9.9c-7.2,3.7-12.1,8.8-15,15.6
	c-0.7,1.7-0.5,4.8,0.5,6.2c3.6,4.8,7.4,9.5,11.8,13.4c9.1,8,16.3,17.1,19.8,28.8c0.1,0.3,0.7,0.5,0.8,0.6c1-5.6,1.3-11.3,3.1-16.6
	c2-5.7,4.6-11.5,8.2-16.2c4-5.2,11.2-4.9,15.9-0.2c1.9,1.9,3.7,4.4,4.6,6.9c2.8,8.4,2.6,17-0.1,25.5c-1.4,4.3-4.6,7.3-9.1,7.3
	c-2.6,0-5.7-1.6-7.6-3.5c-2.8-2.9-1.6-6.2,2.3-7.1c0.3,3.9,0.5,8.4,6.2,6.5c1.8-0.6,4-3,4.3-4.9c0.9-5.8,1.8-11.9,1.3-17.7
	c-0.6-7.4-4.5-11.7-9-12.2c-4.9-0.5-8.7,3-11.5,10.6c-4.4,12.3-6,24.9-3.7,37.8c1.4,7.7,2.3,15.8,8.8,21.8
	C491.1,431.3,501,415.9,505.9,396.1 M461.5,224.8c-3,2.8-5.9,5.6-8.9,8.4c-0.6,0.5-1.2,1-1.7,1.6c4.7,4,9.4,7.9,14.1,11.9
	c2.8,2.3,6.6,1.7,8.2-1.8c1-2.1,1.5-4.9,1.1-7.2c-0.9-4.2-2.5-8.3-4-12.3c-3.9-10.3-3.1-20,3.7-28.8c2.5-3.2,5.9-5.7,9.2-8.8
	c-8.9-11.9-20.1-21.4-33.1-28.9c-5.5-3.1-11.1-6.2-16.1-10c-6.2-4.8-10-11.1-9.2-19.4c0.5-5.9,4-9.7,8.8-13
	c-2.3-0.2-4.3-0.3-6.2,0.2c-7.3,1.9-10.2,6.8-10.2,17.1c0,3.9-0.9,7.3-5.2,7.7c-4.2,0.4-7-2.3-7.7-6.4c-0.5-2.9,0-6-0.1-8.9
	c-0.1-2.3-0.6-4.7-1-7.3c-2,4.1-3,8.1-5.4,10.6c-2.6,2.7-6.6,4.1-11.3,6.8c18,11.3,35.9,21.9,42.7,43.4c9.2-11.4,21.2-11.5,29.5-1
	C467.9,190.4,469.4,211.6,461.5,224.8 M395.2,232.9c6.3-6.1,5.7-13.9-1.7-23.6c-1.4,2.7-2.4,5.8-4.3,8.2c-4.6,5.9-13.5,5.7-17-0.3
	c-0.7-1.1-0.2-2.9-0.3-4.4c1.1,0.7,2.4,1.1,3.2,2c3.6,4.2,9.1,4.3,11.6-0.6c1.5-3,2.3-7.1,1.7-10.4c-1.8-9.8-10.7-15.8-21.7-14.9
	c-9.4,0.7-16.7,5.3-20.1,14.2c-3.3,8.7-2.2,17.2,5,23.7c6.5,5.9,13.4,11.3,18.5,15.5c6.5-2.6,11.4-4.7,16.4-6.6
	C389.2,234.9,391.9,234.1,395.2,232.9 M214.2,139.8c-1.1,0.7-2.1,1.3-3.2,2c2.8,5.6,6.7,8.8,14,9.4c-2.9-3.5-5-6.1-8-9.8
	c6.8,0,10.5-3.3,13.9-7.2c0.7-0.8,2.4-1,3.7-1.1c5.3-0.6,10.3,2.2,12.7,7c2.4,4.8,1.6,10.2-2.1,14.3c-1,1.1-2.4,2-2.9,3.3
	c-1.9,4.9-3.9,9.8-4.9,15c-0.5,2.5,0.4,5.9,1.9,8c2,2.7,5.5,2.7,8.6,1c4.6-2.5,6.6-6.7,6-11.7c-1.5-13.7,2.4-24.6,15.4-31
	c0.1-0.1,0.1-0.3,0.2-0.4c0.5-0.5,1.1-1.1,1.6-1.6c-2.5-1.8-4.9-3.9-7.6-5.3c-2.8-1.4-3.6-3.2-3.6-6.3c0.1-5.7-2.3-10.4-7.9-13.9
	c0,2.5,0,4.1,0,5.7c0.2,4.4-1.6,7.8-5.5,9.9c-3.8,2.1-7.5,1.1-10.7-1.4c-2.5-1.9-4.6-4.3-7-6.4c-1.9-1.6-4-3.1-6-4.6
	C225.6,125.1,223.4,133.3,214.2,139.8 M377,371.5c0,6.7,3.5,11.3,9.3,14c4.8,2.2,10.7,0.5,14.5-3.6c4.8-5,3.5-11,2.6-16.9
	c-0.1-0.8-1.7-1.8-2.8-2.1c-5-1.5-10.1-2.8-15.6-4.2C381,361.3,376.5,364.2,377,371.5 M348,141.4c1.7,3.4,2.8,7.3,5.3,9.9
	c1.6,1.6,5.8,2.3,7.9,1.3c1.6-0.8,3-5,2.4-7.2c-2.4-8.4-4-16.7-1-25.5c-9.7-2.3-14-8.9-16.2-17.9c-1.3,1.7-2.5,3.5-2.3,5.1
	c0.3,2.7,1.5,5.3,2.6,7.9c1.8,4.2,3.5,8.7,0.3,12.7c-2,2.5-1.9,4.6-0.8,7.2C346.9,136.7,347.3,138.7,348,141.4 M327.2,96.3
	c-4,0-8.1,0-12,0c0.5,4.2,1,8.3,1.5,12.7c7-1.7,2.9,4.8,5.3,7.1c6.6,0,13.5,0,20.7,0c-3.2-6.4-5-12.8,3.1-18.4
	C339.2,97.2,333.7,96.8,327.2,96.3 M285.9,158.3c-5.9-0.2-5.2-5.2-6.7-10.3c-0.5,4.2-1.1,6.9-1.1,9.7c-0.1,6.1,3.3,12.8,6.5,12.9
	c4.8,0.2,11.7-6.3,12.5-12c0.3-1.8,0.7-4.1-0.2-5.4c-1.6-2.5-3.7-5.1-6.2-6.4c-1.3-0.7-4.5,0.9-5.8,2.3c-0.9,0.9,0,3.5,0.3,5.4
	C285.3,155.6,285.9,156.7,285.9,158.3 M148.1,253.6c-4.2-3.7-8.4-7.4-13-11.6c-0.6,3.8-1.7,8.3-1.8,12.8c-0.2,6.4,3.9,11.1,8.8,11.3
	c5.8,0.3,9.7-3.5,10.8-10.8C151.5,254.9,150.1,254.4,148.1,253.6 M276.9,109.3c-0.4,10.5-2.8,13.4-14,15.6c3.4,3.2,6.1,5.8,8.4,7.9
	c3.7-1.8,6.6-3.9,9.7-4.4c5.5-1,7.3-4.4,8.1-9.4c-5.3-1.6-9.6-4.1-11.1-9.7c-0.1-0.5-0.6-0.8-0.9-1.2
	C277,108.3,277,108.5,276.9,109.3 M111.8,219.4c-3.9,9-4.9,18.3-3.5,28.3c9.2-8,14-24.2,7.2-35.7
	C114.2,214.4,113.1,216.6,111.8,219.4 M426.6,238.1c-3.1,3.6-5.8,7.6-9.3,10.8c-3.1,2.8-3.1,5.7-0.6,8.1c1.9,1.9,5,3.8,7.4,3.5
	c4.2-0.4,6.8-4.3,6.5-8.2C430.2,247.6,428.3,243.1,426.6,238.1 M311.9,123.6c-0.8,2.7-1.8,5.1,0.9,7.7c3.7,3.4,7,7.3,10.9,11.5
	c2-2.2,4.5-4.8,7.3-7.8c-8.2-4.7-12.1-11.5-14.3-21.1C314.7,117.7,313.4,120.3,311.9,123.6 M463,450.5c2.7-1.5,5.4-3.1,7.7-4.3
	c-2.7-6.3-5.2-12.1-7.5-17.3c-1.8,7.4-3.7,15.5-5.7,23.9C459.2,452,460.8,451.4,463,450.5 M394.2,346.7c-1.8,2.7-3.6,5.4-6,8.9
	c4.8,1.4,8.9,2.5,13,3.7c-0.8-7.8-1.5-14.7-2.2-21.2C397.7,340.4,396.1,343.2,394.2,346.7 M193.2,161.8c4-3.7,3.2-8.1,2.1-13.5
	c-2.7,1.7-4.8,3.3-7.1,4.5c-3,1.5-4.5,3.4-2.9,6.7C186.9,162.4,189.1,164.1,193.2,161.8 M239,142.5c0.6,3.2,1.2,6.4,1.7,9.6
	c4.2-3.1,5.5-6.8,3.1-9.9c-1.9-2.4-5.3-4-8.3-5c-1.3-0.4-3.4,1.6-5.2,2.5c0.2,0.7,0.4,1.5,0.6,2.2
	C233.4,141.9,235.9,141.9,239,142.5 M219.5,126.9c0.2-1.5,0.3-3,0.5-4.9c-7.6,4.2-10.3,8.7-9.3,15.2
	C215,135.2,217.9,132.2,219.5,126.9 M468.4,354c-3.3,2.1-6.6,4.1-10.2,6.3c8.4,3.2,15.5-2.1,16.3-12
	C472.6,350.2,470.8,351.8,468.4,354 M498.1,222.6c-1.6-4.7-3.2-9.4-4.8-14.1c-2.1,8.5-0.3,15.8,5.8,21.9
	C498.8,228,498.5,225.7,498.1,222.6 M288.9,335.3c1.4,2.1,2.9,4.3,4.3,6.4c0.3-0.1,0.5-0.3,0.8-0.4c-1.8-6.5-3.5-12.9-5.3-19.4
	c-0.5,0.1-1.1,0.2-1.6,0.3C287.6,326.3,288.2,330.4,288.9,335.3 M296.8,169.8c-0.4-0.3-1-1-1.1-0.9c-2.5,1.7-5,3.5-7.7,5.5
	c2,1.4,3.8,2.6,6,4.1C295,175.4,295.8,173,296.8,169.8 M424.3,353.2c6.2-6.2,6.2-8.3-0.3-10.3C424,346.1,424,349.3,424.3,353.2
	 M446.8,224.3c0.6,0,1.6,0.2,1.7,0c1.1-2.7,2.1-5.4,3.1-8.2C444.8,216.8,444.3,217.5,446.8,224.3 M293.2,121.4c0.2,0,0.3,0,0.5,0
	C293.7,121.3,293.6,121.2,293.2,121.4z"/>
<path class="st3" d="M292.9,407c-10.4-5.9-20.9-9.4-32.7-7.2c-15.6,2.9-27.3,16.5-28.2,32.5c-1.1,19.5,7.9,34.2,22,46.5
	c3.1,2.7,6.5,5,9.5,7.9c-11-2.7-20.8-7.7-29.7-14.5c-19.4-14.8-31.3-34.1-32.4-58.8c-0.7-15,4.8-28.4,15.2-39.5
	c2.3-2.4,4.7-4.7,7-7.1c11-11.3,12.2-19.7,4.6-33c7.5,0,15.9,7.7,17.7,16.6c0.5,2.6,0.7,5.3,1.1,7.9c0.2,1.3,0.3,2.6,0.7,3.9
	c2,7.3,7.1,11.4,12.6,10.2c7-1.6,12-8.8,10.1-16c-1.5-5.4-3.5-10.9-6.7-15.4c-14.1-19.8,1.5-37.9,20.9-39.9
	c6.1-0.7,12.4-0.1,18.6-0.1c0.1,0.6,0.1,1.2,0.2,1.8c-1.9,0.9-3.8,1.8-5.6,2.8c-18,9.8-19.4,31.3-2.2,42.4c7.3,4.7,15.9,7.5,24,10.9
	c7.2,3,13.9,6.5,18.1,13.5c3.8,6.4,3.3,9.3-2.6,13.7c-12.2,9-16.9,21.6-16.7,36.1c0.2,13.1,2.6,25.9,9.1,37.5
	c3.3,5.9,7.6,11.2,11.9,17.4c-3.2,1.5-6.9,3.5-10.8,5.1c-15.5,6.4-31.6,9.2-48.3,7.8c-3.1-0.3-6.2-2.2-9-3.8
	c-11.4-6.3-21.3-14.4-28.2-25.6c-7.8-12.8-10.3-26.3-3.7-40.4c6.3-13.4,20.2-19.6,36.2-16c9.8,2.2,18.4,6.7,24.4,15.3
	c6.9,10,4.6,24.5-5.2,32.3c-9,7.1-22.5,5.7-30-3.5c-2.2-2.7-3.1-6.5-4.8-9.7c-0.6-1.2-1.6-2.1-2.4-3.1c-0.5,1.4-1.6,2.9-1.4,4.3
	c1.5,10.2,11.8,19.7,21.9,20.4c11.9,0.8,22.4-4.9,27.1-14.9c5-10.7,3-22.9-5.1-31.5C298,411.3,295.5,409.3,292.9,407z"/>
<path class="st3" d="M359.1,330.9c4.6,2.8,9.6,5.1,13.7,8.5c3.9,3.3,4.8,8.3,3.8,13.3c-1,4.7-2.3,9.4-3.3,14.1
	c-2.6,12.9,6.3,23.8,19,23.3c8.7-0.3,16.1-7.2,15.6-16.2c-0.6-8.7-2.9-17.3-4.4-25.9c-1.2-7,0.7-12.9,6.3-17.4
	c5.1-4.1,10.8-4.8,16.2-2.6c-2,5.3-4.8,10.3-5.8,15.6c-2,10.3,2.4,18.9,9.3,26.3c4.8,5.1,10,9.8,14.8,14.9
	c12.2,12.8,16.1,28.2,14.2,45.5c-1.5,13.3-6.2,25.1-15.4,35c-10.1,10.9-23.1,16-37.3,18.6c-6.4,1.1-12.9,1.3-19.3,2.2
	c-3.8,0.5-6.1-1.1-8.3-4.1c-11.5-16.3-17.4-33.7-10.3-53.5c5.5-15.4,19.7-24.9,35.6-23.4c8.9,0.8,15.8,5.2,19.7,13.4
	c3.4,7.3,3,14.6-1.9,21.2c-4.1,5.6-11.9,8-18.8,5.7c-6.6-2.2-9.8-7.3-9.7-15.1c0-0.7,0.3-1.4,0.1-2c-0.4-1.1-1-2.1-1.5-3.1
	c-0.8,0.9-2,1.7-2.3,2.7c-2.9,9.8,5.4,21.2,16,22.2c9.6,0.8,17.7-3.5,21.8-11.8c4.6-9.3,2.7-20.6-4.9-28.6
	c-9.6-10.2-27.1-11.8-40.1-3.8c-15.5,9.5-23.7,28.9-20.5,47c2.1,11.5,6.9,21.8,13.9,32.1c-8.3,0.2-15-2.2-21.6-5.1
	c-18.2-8.2-26.3-23.8-29.6-42.3c-1.2-6.9-1.3-14.2-1.2-21.3c0.1-12.3,6.5-21.3,16.2-28.4c3.5-2.6,7-5.1,10.5-7.7
	c15.4-11.7,19.3-28.3,10.5-45.6c-0.5-0.9-0.8-1.8-1.2-3.2C358.9,331.1,359.1,330.9,359.1,330.9z"/>
<path class="st4" d="M260.9,151.1c3.9-5.7,9-8.6,16.1-9c-0.7,2.8-1.4,5.1-2,7.5c-2.9,12.6,0,20,10.5,27.7c4.6,3.3,9.2,6.7,13,10.8
	c6.1,6.4,9.3,14.4,10.3,23.9c-11-4.8-21.3-5.4-31.8,3.3c2.3,0.9,3.6,1.4,4.8,1.8c3.9,1.5,8.1,2.4,11.5,4.5
	c7.3,4.7,6.8,13.1-0.8,17.2c-2.6,1.4-5.5,2.5-8.4,2.9c-19,2.7-32.6,12.6-40.9,30.6c-2.1-4-3.6-7.8-5.9-11.1
	c-2.3-3.4-5.3-6.4-8.2-9.4c-0.7-0.8-2.2-0.8-3.4-1.2c-0.1,1.2-0.6,2.5-0.4,3.6c1.4,5.7,0.7,10.9-2.8,15.6c-2,2.7-4.6,4-6.7,0.5
	c-2.9-4.9-6.8-9.9-7.6-15.3c-2.2-14.6,1.4-28.5,9.2-41c6.1-9.8,17.6-14.4,26.5-10.9c7.3,2.9,11.2,9.8,9.6,16.7
	c-1.7,7.2-7.8,11.7-15,11.2c-5.5-0.4-8-3.5-7.2-9c0.1-1-0.5-2.2-0.8-3.3c-1,0.7-2.3,1.2-2.8,2.2c-2.4,4.8,0.8,10.8,6.7,13.1
	c7.5,2.9,16.6-0.7,21-8.2c4.4-7.5,2.8-17.2-3.9-22.6c-7.7-6.2-16.3-7.3-24.6-2.2c-5,3-9.8,7.2-12.9,12c-8.1,12.5-11.6,26.7-9.6,41.5
	c0.9,6.6,4.6,12.8,6.9,19c-4.1,0.6-9.2-2.5-11-8.7c-1.5-5.1-2.1-10.4-2.9-15.7c-1.7-11.4-7.5-20-17.2-26.3c-1.5-0.9-2.8-3.2-2.8-5
	c-0.6-17.9,13.2-36.8,31-43c2.7-0.9,5.4-1.8,8-2.8c14.9-5.8,17.6-14,9.2-27.3c8.4-2,15.6,8.2,11.9,18.4c-1,2.6-2.6,5.1-3.6,7.7
	c-1.7,4.6-1.4,8.9,2.5,12.3c3.8,3.4,8.2,4.3,12.9,2c6.4-3.1,9-8.5,8.9-15.5C258,163.6,256.9,157.2,260.9,151.1z"/>
<path class="st5" d="M366.2,296.9c-0.9-7.5-5.2-13-11.5-16.7c-15.1-8.9-30.8-10.2-46.6-1.9c-6.4,3.3-10.8,8.7-14.1,15.1
	c-0.7,1.4-2.2,2.9-3.6,3.2c-7.5,1.6-15.1,2.9-23.5,4.4c-3.6-9.4-10.5-17.9-20.8-23c2-13.9,16.2-27.4,32-31.2
	c5.5-1.3,11.2-2.3,16.2-4.7c10.1-5.1,10.9-16.1,2.1-23.2c-1.5-1.2-3.4-2.1-5.2-3c-1.3-0.7-2.6-1.1-4.2-1.8
	c12.1-4.8,26.2,1.9,31,14.4c0.8,2.2,1.4,4.5,2.3,6.6c2.1,4.8,6.2,6.9,9.9,5.2c3.7-1.7,5.4-7,3-11.3c-1.9-3.3-4.7-6-7-9.1
	c-6.7-9.1-8-19-3-29.2c5.1-10.5,14.1-15.5,26.6-15.8c-1.1,1.5-1.8,2.5-2.6,3.4c-13.1,15.2-12.6,36.8,1.6,51.1c5,5,11.3,8.9,16.3,14
	c7.6,7.7,14.6,15.9,21.8,24.6c-2.4,5.4-4.3,10.5-7.5,14.6C375.6,287.8,370.7,292.2,366.2,296.9z"/>
<path class="st4" d="M381.5,108.4c-0.9,4.4-2.4,8.7-2.7,13.2c-0.6,7.5,1.1,14.5,7.8,19.2c4.1,2.9,8.3,5.6,12.5,8.2
	c15.2,9.4,25,22.7,29.1,40.1c0.4,1.9,1.3,3.6,2.1,5.8c-8.3,10.4-11.9,22.2-6.7,35.9c0.7,1.8-0.9,4.7-2,6.7c-1.2,2.3-3.1,4.3-5.2,6.4
	c-0.6-0.1-0.7-0.2-0.9-0.4c0.8-5.2,2.3-10.5,2.4-15.7c0.2-14.5-15.2-23.7-24.6-21c-2-12.4-9-20.3-21.7-21.6
	c-13.5-1.4-23.3,5-29.7,18c-0.1-13.3,6.7-21.8,15.5-29.3c-0.2-0.5-0.3-1.1-0.5-1.6c-3.8-0.4-7.6-1.4-11.3-1
	c-12.6,1.4-21.9,7.8-26.7,19.7c-4.9,12-2.7,23.1,5.6,33.1c1.8,2.2,4,4.2,5.1,6.7c0.7,1.5-0.5,3.9-0.9,5.8c-1.6-1-4.2-1.7-4.6-3.1
	c-2.3-6.7-5-13-10.4-17.9c-0.6-0.5-0.7-1.8-0.8-2.7c-0.8-11-5.1-20.6-12.6-28.7c-2.1-2.3-2.5-4.2-1.8-7.1
	c2.2-8.9,6.9-16.2,14.1-21.8c4.3-3.4,8.9-6.5,13.3-9.7c6.5-4.6,10.4-10.7,10.1-19c0.4-0.2,0.9-0.4,1.3-0.6c1.9,3.8,3.9,7.6,5.5,11.5
	c1.2,3.1,1.5,6.6,2.9,9.5c1.5,3,3.6,6.1,6.2,8.2c3.4,2.9,7.7,3.2,11.7,0.7c3.8-2.4,4.7-6.3,4.1-10.5c-0.3-2.3-1.1-4.5-1.8-6.7
	c-3.9-13.2,1.6-25.2,14.6-30.8C381.2,108.2,381.4,108.3,381.5,108.4z"/>
<path class="st6" d="M132.1,343.9c3.5,0.3,5.6,1.9,6.9,5.4c9.7,26.6,29,43.2,55.2,52.5c2.6,0.9,4.1,1.6,3.7,4.6
	c-1.8,15.9,2.6,30.3,10.7,43.7c3.7,6.1,8.3,11.6,12.8,17.7c-1.2,0.3-2.7,1-4.2,1.1c-14,0.9-28,0.5-41.4-4.5
	c-1.5-0.6-3.3-1.2-4.3-2.3c-11.7-13.1-20.6-27.8-24.5-45.1c-1.9-8.5,1.5-13.3,9.9-15.5c11.5-3,25,5.1,27.5,16.5
	c2.2,9.9-5.1,18-15.1,16.9c-1.2-0.1-2.5,0.6-3.7,0.9c1.2,1,2.2,2.5,3.5,2.8c10.1,2.6,21.2-8.2,19.8-19.3
	c-2-16.5-22.4-27.5-37.4-20.2c-6.8,3.4-10.1,9.7-8.6,17.3c2.5,13,8.7,24.3,15.7,35.3c1.1,1.8,2.4,3.5,3.7,5.2
	c-0.4,0.5-0.8,0.9-1.1,1.4c-6-4.4-12.4-8.4-18-13.2c-17.5-15.1-26.3-35-32.1-56.9c-2.5-9.6-6.4-18.8-10.4-27.9
	c-1.7-3.9-5.5-6.8-8.7-10.5c9,0.1,16.4,2.8,21.1,10.8c1.9,3.3,3.1,7.1,5.2,10.2c2.5,3.6,5.2,7.6,8.7,9.9c7.6,5.1,16.8-0.2,17.1-9.4
	c0.3-9-4.3-16.2-9.2-23.2c-0.9-1.2-1.9-2.3-2.8-3.9C132,344,132.1,343.9,132.1,343.9z"/>
<path class="st7" d="M169,90c-5.1-8.3-4.7-17-1.3-25.7c1.5-4,3.6-7.8,5.6-11.6c3.4-6.2,4.6-12.7,3.6-20.2c0.1-0.5,0.3-0.7,0.3-0.7
	c6.9,4.2,9.1,10.7,8.4,18.3c-0.5,5.5-1.6,10.9-1.7,16.3c0,6.5,3.7,11.3,8.8,12.5c4.8,1.1,8.5-0.7,11.2-4.7
	c3.1-4.7,2.7-10.3-1.2-15.3c-0.8-1-1.7-2-2.7-3c9.8-2.2,18.4,6.7,19.8,15.3c1.7,10.7,4.7,13,15.3,11.6c33.8-4.6,67.7-6.3,101.7-4.5
	c23.2,1.2,46.4,4.2,69.6,6.7c13.2,1.4,23.8-5.5,27.3-18.5c2.7-9.9-1.6-21.4-10.1-26.8c-8-5.1-18.9-4.9-26,1.8
	c-3.4,3.2-5.9,8-7.1,12.6c-1.4,5.1,3.7,10.1,8.2,9.6c4.3-0.5,6.4-4.2,5.4-8.8c-0.4-1.8-0.2-5.2,0.6-5.6c2.2-0.9,5.3-1.3,7.3-0.4
	c6.1,2.8,6.4,11.3,1,16.5c-9.7,9.4-27.4,3.6-31.1-10.1c-3.8-14.1,5.8-27.9,21.2-30.5c17.8-3,36.8,9.6,42,28.6
	C444.1,72.3,432.8,85,415,90.1c-15.7,4.5-31.2,2-46.9,0.7c-14-1.2-28-3.3-42-3.6c-21.1-0.4-42.2,0.1-63.3,1
	c-10.9,0.4-21.7,2.2-32.5,3.6c-9.5,1.2-18.9,3.1-28.5,4.1C190.4,97.2,179.3,95.3,169,90z"/>
<path class="st5" d="M231.4,328.8c-0.8-13.7-7.6-22.8-19.6-26.2c-11.1-3.2-22.9,0.9-29.3,10.7c-6.3,9.4-6.4,19.2-1,29.4
	c-15.4-1.2-29.3-5.8-40.5-16.7c0.5-12.1,5.8-22.1,14-30.6c5.4-5.6,11.8-10.4,17.2-16c14.5-15.1,14-37.3-1-51.9c-1-1-2.4-1.7-3.1-3
	c8.7-0.3,15.2,3.9,19.1,10.6c3.3,5.7,4.8,12.5,6.7,19c0.9,3,0.8,6.3,1.5,9.3c2.4,9.6,9.5,15.1,18.7,14.6c8.5-0.4,14.1-6,15.7-15.9
	c0.1-0.8,0.2-1.6,0.4-3.7c4.8,5,7.4,10.1,8.8,15.8c0.9,3.9,2.6,6.2,6.3,8c7.4,3.6,13,9.2,15.9,17.5c-1.3,1.8-2.2,3.2-3.2,4.4
	C250.3,313.7,242.5,323,231.4,328.8z"/>
<path class="st8" d="M100,331c-4.1-8.1-5.6-16.6-4-25.6c1.9-10.1,10.6-17.4,20-16.5c7.3,0.7,12.4,6.7,12.1,14
	c-0.3,7-6,12.2-13.1,12.5c-2,0.1-3.9,1-5.8,1.6c2.2,0.7,4.3,2.1,6.5,2.1c7,0,12-3.6,14.9-9.9c2.8-6.3,2.1-12.4-2.4-17.8
	c-5-6-11.6-7.6-18.9-5.8c-11.2,2.7-19.1,15.5-17.6,28.6c0.5,4.8,1.9,9.4,2.5,14.4c-1.6-0.3-2.9-0.9-4.2-1.4c-5-17.8-2.9-35.2,5-51.4
	c4.3-8.8,10.4-17,16.7-24.7c9.8-12,14.4-24.6,8.5-39.7c-1.2-3.1-3-5.9-4.1-10c3.2,1.5,6.8,2.5,9.6,4.6c8.7,6.4,11.4,15.3,9.1,25.6
	c-1.4,6.2-3.4,12.2-4.9,18.3c-0.5,1.9-0.5,4-0.3,5.9c0.7,8,6.2,14.1,12.8,14.3c7.7,0.2,14.5-5.4,14.7-13.9
	c0.2-6.3-1.6-12.6-2.6-19.2c8.9,1.4,17.3,5.4,23.6,12.9c1.3,1.6,1.1,4.8,0.9,7.1c-1,10.6-7.1,18.2-14.7,25.2
	c-7,6.5-13.6,13.6-19.6,21c-2.9,3.6-4.1,8.7-6.5,13.5C126.7,326.7,114.8,333,100,331z"/>
<path class="st6" d="M505.8,396.5c-4.7,19.4-14.6,34.8-30.7,46.6c-6.5-6-7.5-14.1-8.8-21.8c-2.3-12.8-0.8-25.5,3.7-37.8
	c2.8-7.6,6.5-11.1,11.5-10.6c4.5,0.5,8.4,4.8,9,12.2c0.5,5.8-0.4,11.9-1.3,17.7c-0.3,1.9-2.5,4.3-4.3,4.9c-5.7,1.9-5.9-2.6-6.2-6.5
	c-3.9,1-5.2,4.2-2.3,7.1c1.8,1.9,5,3.5,7.6,3.5c4.5,0,7.7-3,9.1-7.3c2.7-8.4,2.9-17,0.1-25.5c-0.8-2.6-2.6-5-4.6-6.9
	c-4.7-4.7-11.9-5-15.9,0.2c-3.6,4.7-6.3,10.5-8.2,16.2c-1.8,5.2-2.1,11-3.1,16.6c-0.2-0.1-0.7-0.3-0.8-0.6
	c-3.6-11.7-10.7-20.8-19.8-28.8c-4.5-3.9-8.3-8.7-11.8-13.4c-1.1-1.4-1.3-4.5-0.5-6.2c2.9-6.7,7.8-11.8,15-15.6
	c0.7,3.6,1.2,6.8,2,9.9c2.4,9.1,10.9,15.8,18.7,15c8.2-0.8,15-8.3,15-17.8c0-5.9-1.5-11.8-2.4-17.7c-0.8-5.9-2.3-11.8-2.4-17.7
	c-0.2-8.9,8.6-18.9,19.6-17.8c-1.6,2.3-3.2,4.3-4.5,6.6c-5.9,10.3-4.4,20.1,2,29.5c7.4,10.8,13.1,22.3,15.4,35.4
	C508.2,376,507.9,386.1,505.8,396.5z"/>
<path class="st3" d="M366.2,297.4c4.5-5.2,9.4-9.6,13.3-14.8c3.1-4.2,5.1-9.3,7.6-14.3c14.9,22.9,18.4,47.2,5.9,72.5
	c-2.7,5.5-7.5,10.1-11.6,15.2c-0.4,0.1-0.5-0.1-0.5-0.1c0.4-17.9-11.9-31-29.8-31.6c-0.9,0-1.9,0.8-2.9,1.3c0.7,1,1.1,2.3,2,3.1
	c10.7,9.8,13.6,25.8,6.7,38.2c-3.5,6.4-12.7,7.2-17.2,1.4c-5.7-7.3-13.3-12-21.9-14.1c-15.8-3.9-21.8-14.9-24-29.4
	c-0.1-0.7-0.3-1.3,0.1-2.3c10.6-0.7,20.7-1,30.8-1.4c8.3,2.2,16.4,3.1,24.8,0.1C360.2,317.2,367.2,306.7,366.2,297.4z"/>
<path class="st8" d="M448.6,301c1.5-10.4-2.6-18.1-11.7-21.6c-9.5-3.8-21.1-0.6-26.4,8.2c-2.6,4.4-3.4,9.9-5.4,15.2
	c-0.6,0.3-0.8,0.2-1,0.2c-2.3-20.7-12-37.8-25.8-52.9c-3.4-3.7-3.2-5.6,1.3-7.8c2.6-1.3,5.6-2,8.5-2.7c14.4-3.5,18.5-11.4,13-25.1
	c-0.4-0.9-0.7-1.8-1.1-2.8c7.3,0.3,14.1,7.7,14,15.8c0,4.3-1.4,8.5-1.9,12.8c-0.5,4.4-1.2,8.9-0.9,13.3c0.4,5.9,5.8,10.9,11,11.2
	c5.1,0.3,11-3.9,11.6-9.7c0.5-4.9-0.6-10.1-1.7-15c-0.8-3.3-2.9-6.3-4.3-9.5c-6.6-15.5,0.4-33.8,15.8-41.3
	c-1.2,5.1-2.9,10.1-3.5,15.3c-2,16,5.3,28.3,16.2,39c9.2,9,17.3,18.8,22.2,31.4c-5,5.9-9.3,11.8-14.7,16.5
	C459.3,295.3,453.7,297.9,448.6,301z"/>
<path class="st9" d="M140.8,326.3c11.4,10.5,25.2,15.1,40.8,16.7c3.4,1.9,6.2,4.6,9.5,5.6c6.6,2.1,12.2-1.1,15.9-8.2
	c5.4-2.3,10.2-4.3,14.9-6.3c7.8,6.2,9.6,15.3,4,23.3c-3.1,4.5-7.1,8.3-10.9,12.2c-8,8.2-13.2,17.8-16.4,29.1
	c-9.9-2.2-18.5-6.7-26.4-12.5c-14.9-10.9-26.5-24.3-30.6-42.8C140.5,338,140.9,332.3,140.8,326.3z"/>
<path class="st10" d="M448.4,301.3c5.3-3.4,10.9-6,15.4-9.9c5.4-4.7,9.8-10.6,14.8-16.2c2.3,5.2,4.3,10.6,6.4,15.9
	c-12.5,7-18.3,16-13.4,35.8c0.5,1.9,0.8,4,1.6,5.8c3.5,7.7-0.1,13-6.1,17.3c-2.5,1.9-5.2,3.6-8,5c-5.7,2.9-7.4,2.4-9.4-3.9
	c-1.3-4.1-1.9-8.4-2.6-12.7c-0.5-3.1-1.9-3.7-4.4-2.2c-3.4,2-6.8,4.1-10.6,6.4c-1.8-1.3-3.9-2.9-6.7-4.9c1.9-2.4,3.3-4.9,5.4-6.5
	c3.5-2.6,2.6-4.6-0.7-5.6c-4-1.3-8.3-2.2-12.5-2.4c-2.8-0.2-4.5-0.9-5.2-3.5c-1.1-4.3-2.1-8.7-2.7-13.4c5.9,0.3,11.3,1,16.8,1.6
	C436.1,313.7,444,311.3,448.4,301.3z"/>
<path class="st11" d="M461.7,224.5c7.7-13,6.3-34.2-2.9-45.7c-8.3-10.5-20.4-10.4-29.5,1c-6.8-21.6-24.7-32.2-42.7-43.4
	c4.6-2.7,8.6-4,11.3-6.8c2.4-2.5,3.4-6.5,5.4-10.6c0.4,2.6,0.8,4.9,1,7.3c0.2,3-0.4,6,0.1,8.9c0.7,4,3.5,6.7,7.7,6.4
	c4.4-0.4,5.3-3.8,5.2-7.7c-0.1-10.3,2.8-15.2,10.2-17.1c1.9-0.5,3.9-0.5,6.2-0.2c-4.7,3.3-8.2,7.1-8.8,13
	c-0.8,8.3,3.1,14.7,9.2,19.4c5,3.8,10.6,6.9,16.1,10c13,7.5,24.2,17,33.1,28.9c-3.3,3.1-6.7,5.6-9.2,8.8c-6.8,8.8-7.6,18.5-3.7,28.8
	c1.5,4,3.1,8.1,4,12.3c0.5,2.2-0.1,5-1.1,7.2c-1.6,3.6-5.5,4.2-8.2,1.8c-4.7-4-9.4-7.9-14.1-11.9c0.6-0.5,1.2-1,1.7-1.6
	C455.5,230.4,458.5,227.6,461.7,224.5z"/>
<path class="st5" d="M324.3,320.6c-9.9,0.6-20,1-30.6,1.3c-1.2-9.5,4.4-14.9,15.8-16c2.1-0.2,4-1.2,6-1.8c-1.8-1.3-3.4-3-5.4-3.7
	c-4.1-1.5-8.5-2.6-13.1-3.9c3.9-8.8,10.2-14.8,19.3-17.5c14.1-4.3,27.3-2.2,39.1,6.7c5.7,4.3,8.4,10.2,5.3,18
	c-10,5.1-19.5,9.9-29,14.6c-9.7-1.6-12.1-5.5-9.1-14.9c0.2-0.7-0.3-1.7-0.5-2.6c-1,0.3-2.3,0.4-3,1c-3.3,3.1-3.2,10.2,0.1,14.2
	C320.7,317.6,322.5,318.9,324.3,320.6z"/>
<path class="st8" d="M517.1,285c-1.7-3.2-2.9-6.8-5.2-9.6c-7.3-8.9-17.6-9.5-26.2-1.8c-0.6,0.5-1.2,1-1.7,1.4
	c-4.5-7.6-8.9-15-13-21.8c2.3-3.1,6.1-6.1,6.6-9.5c0.7-4.8-0.3-10.2-1.9-14.9c-2.6-7.3-5.1-14.4-2.6-22.2c3-9.6,11.8-16.5,20.6-16.4
	c-1.8,6-4.6,12.1-5.5,18.5c-1.8,12.7,4.5,22.6,12.7,31.8c6.4,7.1,12.4,14.7,18.1,22.4c2,2.7,2.8,6.3,3.9,10.1
	C520.8,277.2,518.9,281.1,517.1,285z"/>
<path class="st12" d="M169,90.3c10.3,5,21.4,6.8,32.8,5.6c9.5-1,19-2.9,28.5-4.1c10.8-1.4,21.6-3.2,32.5-3.6
	c21.1-0.8,42.2-1.4,63.3-1c14,0.3,28,2.4,42,3.6c15.6,1.3,31.2,3.8,46.9-0.7c17.9-5.1,29.1-17.9,30.4-36.2
	c6.7,13.6-0.5,32-15.9,38.5c-6,2.5-12.8,4.5-19.2,4.4c-18.1-0.2-36.2-1.4-54.3-2.4c-14.1-0.8-28.2-1.7-42.3-2.6
	c-1.1-0.1-2.2,0.3-4.4,0.6c5.4,11.2,4.7,21.9-3,32.8c-1.7-5.4-3.4-10.5-5.5-16.9c-2,4.3-3.7,8.1-5.3,11.8c-0.4-0.1-0.9-0.2-1.3-0.3
	c0.5-2.7,0.9-5.5,1.4-8.2c3.1-16.4-0.7-21.8-17.2-21.1c-13.9,0.6-27.7,3-41.5,4.9c-13.8,1.9-27.6,4.4-41.4,6.4
	C184.4,103.4,175.1,100.7,169,90.3z"/>
<path class="st8" d="M394.9,233.1c-3,1.1-5.7,1.8-8.4,2.8c-5,1.9-9.9,4-16.4,6.6c-5.1-4.3-12.1-9.7-18.5-15.5
	c-7.2-6.6-8.4-15.1-5-23.7c3.4-8.9,10.7-13.4,20.1-14.2c11-0.9,19.9,5,21.7,14.9c0.6,3.3-0.2,7.4-1.7,10.4c-2.5,4.9-8,4.8-11.6,0.6
	c-0.8-0.9-2.1-1.4-3.2-2c0.1,1.5-0.4,3.3,0.3,4.4c3.5,6,12.4,6.2,17,0.3c1.9-2.4,2.9-5.4,4.3-8.2C400.9,219,401.5,226.8,394.9,233.1
	z"/>
<path class="st11" d="M156.6,181.3c-14.4-3-20.3,2.3-25.9,23.5c-2.8-1.8-5.6-3.6-8.7-5.6c4.3-7.4,9.8-13.8,16.6-18.8
	c6.3-4.6,13.3-8.2,19.9-12.3c4.5-2.8,9.6-5.2,13.1-8.9c3.5-3.8,5.4-9.1,7.9-13.4c0.1,0.9,0.4,2.7,0.6,4.6c0.4,3,0.3,6,1.1,8.9
	c1.2,4.3,3.6,7.7,8.6,7.7c4.7-0.1,8.1-2.8,9.1-7.2c0.8-3.8,0.5-7.9,0.2-11.8c-0.2-2.8-1.3-5.5-1.8-8.3c-1.6-9.4,4.1-16.4,14.3-17.3
	c-5.1,6.6-7.5,13.5-4,21.4c3.5,7.9,9.9,11.3,18.4,11.8c0.6,6-2.8,9.3-7.3,11.4c-4.2,2-8.7,3.3-13.7,4.7c-8.2-0.3-15.8-1.3-23.1-0.3
	C172.9,172.4,163.9,174.9,156.6,181.3z"/>
<path class="st13" d="M214.5,139.6c8.9-6.3,11.1-14.4,8.5-24.9c2,1.5,4.1,3,6,4.6c2.4,2.1,4.5,4.5,7,6.4c3.2,2.5,6.9,3.4,10.7,1.4
	c3.9-2.1,5.7-5.5,5.5-9.9c-0.1-1.6,0-3.2,0-5.7c5.6,3.5,7.9,8.2,7.9,13.9c0,3.1,0.8,4.8,3.6,6.3c2.7,1.4,5.1,3.5,7.6,5.3
	c-0.5,0.5-1.1,1.1-1.6,1.6c-0.1,0.2-0.1,0.4-0.2,0.4c-13,6.4-16.9,17.3-15.4,31c0.5,5-1.4,9.1-6,11.7c-3.2,1.7-6.6,1.7-8.6-1
	c-1.6-2-2.4-5.5-1.9-8c1-5.1,3.1-10.1,4.9-15c0.5-1.3,1.9-2.2,2.9-3.3c3.7-4.1,4.5-9.6,2.1-14.3c-2.4-4.8-7.4-7.6-12.7-7
	c-1.3,0.1-3,0.3-3.7,1.1c-3.4,3.9-7.1,7.2-13.9,7.2c3.1,3.7,5.2,6.3,8,9.8c-7.4-0.6-11.3-3.8-14-9.4
	C212.1,141.1,213.2,140.4,214.5,139.6z"/>
<path class="st14" d="M221.7,333.8c-4.5,2.2-9.3,4.2-14.5,6.3c-0.4-1.3-0.2-2.7-0.5-3.9c-0.3-0.9-1.4-1.6-2.1-2.3
	c-0.6,0.9-1.6,1.7-1.6,2.6c0.1,4.3-1.9,7.1-6,8.1c-4.4,1.1-8.3-0.1-11.2-3.6c-9.6-11.3-2.5-30.7,12.6-34.6
	c14.6-3.8,29.4,7.2,28.5,21.5c-3.2,0.3-6.4,0.6-9.7,0.9c-0.1,0.6-0.2,1.1-0.3,1.7C218.5,331.4,220,332.5,221.7,333.8z"/>
<path class="st15" d="M517.1,285.4c1.8-4.3,3.7-8.1,5.8-12.2c1.9,5.3,4.2,10.8,4.8,16.5c2.8,25.1-4.2,47.9-18.3,69.6
	c-1.7-4.6-2.7-8.7-4.7-12.4c-3.6-6.9-7.7-13.5-11.6-20.3c-1-1.7-1.6-3.6-2.1-6c3-2.9,5.8-5.3,8.5-7.6c3,5.7,5.5,7.1,11.1,6.2
	c4.6-0.8,9.4-5.9,9.2-11.7C519.6,300.1,518.1,292.9,517.1,285.4z"/>
<path class="st11" d="M139.9,204c0.4,7.7,4.2,10.1,13.7,7.9c7.4-1.3,13.9-2.6,20.5-3.9c-0.4,3.8-0.8,7.6-1.2,11.8
	c-3.7-0.2-7.4-0.6-11.1-0.5c-1.6,0-3.2,1.1-4.8,1.7c1.2,1.2,2.1,2.7,3.5,3.4c6.7,3.5,11.9,8.3,14.8,15.9c-0.3,0.6-0.4,0.8-0.5,0.9
	c-7.7-3-15.3-6-23.1-8.8c-1.1-0.4-2.7,0.4-4.1,0.6c0.3,1.2,0.4,2.5,0.8,3.7c1.7,4.4,3.5,8.8,5.4,13.6c-8.6-0.4-15.5-8.6-15-17.8
	c0.5-7.6-0.3-14.6-3.4-21.8c-4-9.3,3.4-23.2,13-25.6c-2.1,2.9-4.8,5.2-6.8,7.9C139.1,196.3,136.3,199.7,139.9,204z"/>
<path class="st15" d="M231.5,329.2c11-6.2,18.8-15.5,26.5-25c1-1.3,2-2.6,3.3-4.1c3.1,3.1,2.6,5.6-0.4,8.8c-7.6,8-8.5,18.7-3.4,29.1
	c3,6.1,6.1,12.1,8.7,18.3c0.7,1.8,0.7,4.8-0.3,6.1c-2,2.5-4.8,5.5-7.6,5.9c-1.7,0.3-4.4-3.6-6.2-5.9c-0.9-1.2-1-3.2-1-4.8
	C250.6,344,243.8,334.8,231.5,329.2z"/>
<path class="st16" d="M174.2,207.7c-6.7,1.6-13.2,2.9-20.3,4.2c1.9-2.1,4.6-3.9,6.7-6.2c7.5-8.3,5.9-18.1-3.7-24.3
	c7-6.6,16-9.1,25.1-10.2c7.4-1,15,0,22.8,0.4C189.2,178.9,179.2,190.9,174.2,207.7z"/>
<path class="st6" d="M100,331.4c14.8,1.6,26.7-4.7,37.7-14.3c-0.5,7.5-1.2,15.2-2,22.9c-2.5-0.3-5.9-0.8-9.3-0.9
	c-1,0-2.1,1.2-3.2,1.8c0.6,0.9,1.1,1.9,1.7,2.8c4.3,6,8.7,12,12.9,18.1c0.8,1.2,0.9,3,1.7,5.6C120.6,360.6,107.8,349,100,331.4z"/>
<path class="st8" d="M426.3,307.7c-5.3-0.4-10.7-1-16.5-1.7c-1.3-14.9,8.1-25.2,21.4-24c8,0.8,14.3,7.3,14,14.7
	c-0.3,8.5-8.1,12.8-15.5,8.6c-1-0.6-2.3-0.7-3.5-1C426.1,305.3,426.1,306.3,426.3,307.7z"/>
<path class="st14" d="M499.7,312.5c-2.8,2.7-5.6,5.1-8.6,7.6c-3-5-2.1-10.4,0.5-15c2.6-4.4,6.4-8.1,10.1-12.6
	c-3.5-3.3-8.5-2.1-12.9-2.2c-4.1-9.9-3.6-12.7,2.6-16.2c6.5-3.7,14.3-1.8,18.5,5.3c2.3,3.9,3.2,8.6,4.5,13.5
	c-3.7,5.1-7,9.7-10.4,14.2C498.7,305.3,500.5,309.8,499.7,312.5z"/>
<path class="st14" d="M302.5,126c4,4,8.1,7.9,12.1,11.9c5.5,5.6,5.2,7.2-0.8,11.8c-4.4,3.4-8.5,7.3-13.1,11.3
	c1.1-7.4,0.4-14.1-7.1-17.6c-4.7-2.2-8.3-0.9-13.6,4.5c0.6-3.1,2.2-6.2,1.4-8.2c-0.6-1.5-4.4-1.6-7.2-2.4
	c4.7-6.8,13.8-5.2,20.1-10.2C297.5,126.7,300,126.3,302.5,126z"/>
<path class="st6" d="M377,371.1c-0.5-6.8,4-9.7,8-12.4c5.5,1.5,10.6,2.7,15.6,4.2c1.1,0.3,2.7,1.3,2.8,2.1
	c0.9,5.9,2.2,11.9-2.6,16.9c-3.8,4-9.7,5.7-14.5,3.6C380.4,382.8,377,378.2,377,371.1z"/>
<path class="st11" d="M347.9,141c-0.6-2.3-1.1-4.3-1.8-6.1c-1.1-2.6-1.2-4.6,0.8-7.2c3.2-4,1.4-8.5-0.3-12.7
	c-1.1-2.6-2.2-5.2-2.6-7.9c-0.2-1.6,1.1-3.4,2.3-5.1c2.2,9,6.6,15.5,16.2,17.9c-3,8.8-1.4,17.1,1,25.5c0.6,2.1-0.8,6.4-2.4,7.2
	c-2.1,1-6.3,0.3-7.9-1.3C350.8,148.7,349.7,144.7,347.9,141z"/>
<path class="st17" d="M327.6,96.4c6,0.4,11.6,0.8,18.1,1.3c-8.1,5.7-6.3,12-3.1,18.4c-7.1,0-14.1,0-20.7,0c-2.4-2.4,1.7-8.8-5.3-7.1
	c-0.5-4.3-1-8.4-1.5-12.7C319.1,96.3,323.1,96.3,327.6,96.4z"/>
<path class="st18" d="M454.1,179.9c8.6,9,9.5,20,8.3,31.5c-0.7,6.9-3.4,12.7-10.2,16.6c-0.3-5.2,2.2-8.5,5.1-11.8
	c0.9-1,1.3-2.4,1.9-3.7c-1.3-0.5-2.8-1.5-4-1.3c-3.6,0.5-7.1,1.4-11,2.2c0-3.3,0-6.7,0-10c11.3-2.1,15.5-6.6,11.1-12.8
	c-2.4,3.8-3,10.1-10.9,7.5c2.6-4.4,5-8.4,7.3-12.5c0.8-1.5,1.5-3.1,2.3-5.1C454,180.1,454.1,179.9,454.1,179.9z"/>
<path class="st19" d="M140.1,203.7c-3.8-4-0.9-7.4,1.5-10.7c2.1-2.8,4.7-5.1,7.2-7.9c0.1-0.3,0.1-0.3,0.3-0.3c0.6,0,0.8-0.2,1-0.5
	c4.5-0.5,7.9,1.4,10,5.1c2.2,3.9,2,8.3-0.9,11.7c-2.4,2.8-5.4,5.4-8.7,7.1c-3.9,2-5.9,0.5-6.5-3.9
	C143.5,200.7,142.1,201.3,140.1,203.7z"/>
<path class="st20" d="M286.1,158c-0.2-1.4-0.8-2.5-1-3.6c-0.3-1.8-1.2-4.4-0.3-5.4c1.3-1.4,4.5-3,5.8-2.3c2.5,1.3,4.6,3.9,6.2,6.4
	c0.8,1.3,0.4,3.6,0.2,5.4c-0.8,5.7-7.8,12.3-12.5,12c-3.1-0.2-6.6-6.9-6.5-12.9c0.1-2.8,0.6-5.5,1.1-9.7
	C280.7,153.1,279.9,158.1,286.1,158z"/>
<path class="st21" d="M148.4,253.8c1.7,0.7,3.1,1.2,4.4,1.6c-1.1,7.3-5,11.1-10.8,10.8c-5-0.3-9-5-8.8-11.3c0.1-4.5,1.2-9,1.8-12.8
	C139.7,246.2,143.9,249.9,148.4,253.8z"/>
<path class="st20" d="M276.9,109c0.1-0.5,0.1-0.7,0.2-0.8c0.3,0.4,0.8,0.8,0.9,1.2c1.5,5.6,5.8,8.2,11.1,9.7c-0.9,5-2.7,8.4-8.1,9.4
	c-3.1,0.6-6,2.7-9.7,4.4c-2.3-2.1-5-4.7-8.4-7.9C274,122.7,276.4,119.8,276.9,109z"/>
<path class="st22" d="M111.9,219.1c1.2-2.5,2.3-4.6,3.6-7.1c6.8,11.6,2,27.7-7.2,35.7C106.9,237.7,107.9,228.4,111.9,219.1z"/>
<path class="st21" d="M426.8,238.3c1.5,4.8,3.4,9.3,3.7,13.9c0.3,3.9-2.3,7.8-6.5,8.2c-2.4,0.2-5.5-1.7-7.4-3.5
	c-2.4-2.4-2.5-5.2,0.6-8.1C420.8,245.7,423.5,241.7,426.8,238.3z"/>
<path class="st23" d="M312,123.2c1.4-2.9,2.7-5.5,4.7-9.4c2.2,9.6,6.1,16.4,14.3,21.1c-2.8,3-5.3,5.7-7.3,7.8
	c-3.9-4.2-7.2-8.1-10.9-11.5C310.1,128.7,311.1,126.3,312,123.2z"/>
<path class="st18" d="M453.9,180.1c-7.1,3.5-14.1,6.8-21.1,10.2c-1.6-3.7-0.1-10,3.8-13.1c4.9-3.8,11-3.1,17.3,2.3
	C454.1,179.9,454,180.1,453.9,180.1z"/>
<path class="st15" d="M504.1,307.4c3.4-5,6.8-9.5,10.4-14.3c0.7,4.2,1.4,8.6,1.5,13c0,2-0.6,4.8-1.9,5.8c-2.1,1.6-5.2,3.1-7.6,2.8
	C502.5,314.3,504.2,310.5,504.1,307.4z"/>
<path class="st24" d="M119.1,361.9c6.7,3.5,13.5,7,21.4,11.1c-1.8,1.8-3.3,4.8-5.4,5.2c-2.5,0.5-6.5-0.1-8-1.9
	c-3.4-3.9-5.6-8.8-8.2-13.8C119,362,119.1,361.9,119.1,361.9z"/>
<path class="st25" d="M462.6,450.6c-1.9,0.8-3.4,1.4-5.1,2c2-8.3,3.9-16.4,5.7-23.9c2.2,5.2,4.7,11,7.5,17.3
	C468.4,447.4,465.7,448.9,462.6,450.6z"/>
<path class="st26" d="M332.2,318.5c9.1-5,18.6-9.7,28.5-14.5c-1.3,7.7-10,14.3-19.7,14.9C338.2,319.1,335.3,318.8,332.2,318.5z"/>
<path class="st27" d="M394.4,346.4c1.8-3.2,3.3-6,4.6-8.3c0.7,6.6,1.4,13.4,2.2,21.2c-4-1.2-8.1-2.3-13-3.7
	C390.6,352,392.4,349.4,394.4,346.4z"/>
<path class="st28" d="M89.8,327.5c1.3,0.2,2.6,0.8,4.3,1.4c3.8,6.2,7.2,12.3,10.8,18.7c0.1,0.3,0.2,0.3,0.2,0.3
	c-6.3,0-10.7-2.5-12.1-9.1C92.1,335.2,90.8,331.6,89.8,327.5z"/>
<path class="st18" d="M192.9,162c-3.8,2.1-6,0.4-7.5-2.6c-1.6-3.3-0.1-5.2,2.9-6.7c2.3-1.2,4.4-2.7,7.1-4.5
	C196.4,153.6,197.3,158.1,192.9,162z"/>
<path class="st29" d="M238.7,142.2c-2.8-0.3-5.3-0.3-7.8-0.3c-0.2-0.7-0.4-1.5-0.6-2.2c1.8-0.9,3.9-3,5.2-2.5c3,1,6.5,2.6,8.3,5
	c2.5,3.1,1.2,6.8-3.1,9.9C240.1,148.9,239.6,145.7,238.7,142.2z"/>
<path class="st27" d="M404.1,303.4c0.2-0.4,0.4-0.4,0.8-0.3c1.6,6.3,2.6,12.7,4.3,18.9c0.7,2.5,0.6,3.6-1.5,5.3
	c-2.7,2.3-4.9,5.3-6.2,8.1C402.4,324.9,403.2,314.4,404.1,303.4z"/>
<path class="st30" d="M219.3,127.2c-1.4,4.9-4.3,8-8.7,10c-1-6.5,1.7-11,9.3-15.2C219.8,123.9,219.6,125.4,219.3,127.2z"/>
<path class="st27" d="M468.7,353.7c2.1-1.9,3.9-3.6,5.9-5.5c-0.9,10-7.9,15.2-16.3,12C461.8,358.1,465.1,356,468.7,353.7z"/>
<path class="st31" d="M498.1,223c0.4,2.7,0.7,5.1,1,7.4c-6.1-6.1-7.9-13.4-5.8-21.9C494.9,213.2,496.5,217.9,498.1,223z"/>
<path class="st32" d="M331,121c0.4,2.8,0.7,5.7,1.1,8.5c-0.5,0.3-1,0.7-1.4,1c-2.7-3.1-5.5-6.3-8.2-9.4c0.3-0.5,0.6-1,0.9-1.5
	c2.2,0,4.5,0,7.2,0.3C331,120.6,331,120.8,331,121z"/>
<path class="st33" d="M288.8,334.9c-0.7-4.5-1.2-8.6-1.7-12.8c0.5-0.1,1.1-0.2,1.6-0.3c1.8,6.5,3.5,12.9,5.3,19.4
	c-0.3,0.1-0.5,0.3-0.8,0.4C291.8,339.6,290.4,337.4,288.8,334.9z"/>
<path class="st34" d="M331.4,121c-0.4-0.2-0.4-0.4-0.4-0.9c3.9-0.1,8-0.6,11.6,0.4c4.2,1.1,2.1,3.7,1,5.2
	C339.4,123.9,335.6,122.4,331.4,121z"/>
<path class="st35" d="M296.7,170.2c-0.9,2.8-1.7,5.2-2.7,8.3c-2.1-1.5-3.9-2.7-6-4.1c2.7-2,5.2-3.7,7.7-5.5
	C295.8,168.8,296.5,169.5,296.7,170.2z"/>
<path class="st36" d="M424.2,352.9c-0.1-3.5-0.1-6.7-0.1-10C430.6,344.8,430.6,347,424.2,352.9z"/>
<path class="st37" d="M446.6,224c-2.3-6.5-1.8-7.3,5-7.9c-1,2.8-2,5.5-3.1,8.2C448.4,224.5,447.4,224.3,446.6,224z"/>
<path class="st38" d="M302.4,125.6c-2.4,0.7-4.9,1-7.8,1.4c1.4-2,3.2-4.1,5.2-6.4C300.8,122.5,301.5,123.9,302.4,125.6z"/>
<path class="st4" d="M416.1,244.1c-0.1,0.3-0.4,0.5-0.8,0.7c0-0.3-0.1-0.5,0-1C415.7,243.7,415.8,243.8,416.1,244.1z"/>
<path class="st24" d="M118.9,362.1c-0.2-0.1-0.4-0.3-0.6-0.5c0.2,0,0.4-0.1,0.7,0.1C119.1,361.9,119,362,118.9,362.1z"/>
<path class="st7" d="M176.9,32.1c-0.2-0.1-0.4-0.3-0.5-0.5c0.2,0,0.4-0.1,0.7,0C177.2,31.8,177,32,176.9,32.1z"/>
<path class="st3" d="M381,356c-0.1,0.3-0.3,0.4-0.4,0.6c0-0.2-0.1-0.4,0-0.7C380.8,355.8,380.9,355.9,381,356z"/>
<path class="st28" d="M105,348c0.1,0.1,0.2,0.1,0.3,0.2C105.2,348.2,105.1,348.2,105,348C105,348,105,348,105,348z"/>
<path class="st6" d="M131.9,344.1c-0.2-0.2-0.3-0.4-0.4-0.6c0.1,0,0.3,0,0.5,0.2C132.1,343.9,132,344,131.9,344.1z"/>
<path class="st3" d="M358.8,331.2c-0.2-0.2-0.3-0.4-0.4-0.6c0.1,0,0.3,0,0.5,0.2C359.1,330.9,358.9,331.1,358.8,331.2z"/>
<path class="st11" d="M175.3,240.7c0.3,0.2,0.4,0.6,0.5,0.9c-0.2,0-0.5,0-0.9-0.2C174.9,241.2,175,241,175.3,240.7z"/>
<path class="st11" d="M149.8,184.3c0.1,0.3-0.2,0.5-0.7,0.6C148.9,184.5,149.2,184.3,149.8,184.3z"/>
<path class="st12" d="M293.4,121.3c0.2,0,0.3,0.1,0.4,0.2C293.6,121.4,293.4,121.4,293.4,121.3z"/>
<path class="st4" d="M380.9,107.9c0.2-0.1,0.5,0,0.7,0.3C381.4,108.3,381.2,108.2,380.9,107.9z"/>
</svg>
